<svg width="89" height="68" viewBox="0 0 89 68" fill="none" xmlns="http://www.w3.org/2000/svg">
<path d="M47.5801 28.1266C47.5801 26.3372 46.1294 24.8866 44.3401 24.8866C42.5507 24.8866 41.1001 26.3372 41.1001 28.1266H47.5801ZM44.3401 64.4146H41.1001C41.1001 65.4898 41.6331 66.4946 42.5235 67.0977C43.4138 67.7003 44.5453 67.8222 45.5432 67.423L44.3401 64.4146ZM74.5801 52.3186L75.7832 55.327C77.0135 54.835 77.8201 53.6435 77.8201 52.3186H74.5801ZM77.8201 27.1718C77.8201 25.3824 76.3694 23.9318 74.5801 23.9318C72.7907 23.9318 71.3401 25.3824 71.3401 27.1718H77.8201ZM46.3005 25.5471C44.8757 24.4642 42.8432 24.7414 41.7606 26.1661C40.6776 27.5909 40.9549 29.6234 42.3796 30.706L46.3005 25.5471ZM55.1401 36.3346L53.1796 38.914C54.1408 39.645 55.4291 39.7802 56.5216 39.2652L55.1401 36.3346ZM75.9616 30.1025C77.5799 29.3396 78.2737 27.409 77.5107 25.7903C76.7478 24.1719 74.8172 23.4781 73.1985 24.2411L75.9616 30.1025ZM43.1369 25.1183C41.4755 25.783 40.6672 27.6686 41.3316 29.3297C41.9965 30.9911 43.8821 31.7994 45.5432 31.135L43.1369 25.1183ZM75.7832 19.0388C77.4446 18.3742 78.2529 16.4886 77.5885 14.8273C76.9237 13.1658 75.038 12.3577 73.3769 13.0223L75.7832 19.0388ZM73.3769 19.0388C75.038 19.7034 76.9237 18.8953 77.5885 17.2338C78.2529 15.5725 77.4446 13.6869 75.7832 13.0223L73.3769 19.0388ZM45.5432 0.926281C43.8821 0.261736 41.9965 1.06983 41.3316 2.73126C40.6672 4.39265 41.4755 6.27824 43.1369 6.94283L45.5432 0.926281ZM76.1633 13.2036C74.6017 12.3293 72.6274 12.8862 71.753 14.4475C70.8787 16.0087 71.4355 17.9832 72.9968 18.8575L76.1633 13.2036ZM85.3801 22.0786L86.762 25.009C87.8593 24.4915 88.5756 23.4042 88.6179 22.1917C88.6602 20.9791 88.0217 19.8445 86.9633 19.2516L85.3801 22.0786ZM73.1985 24.2411C71.5798 25.0043 70.8865 26.9355 71.6498 28.5538C72.4127 30.1725 74.3433 30.8659 75.9616 30.1025L73.1985 24.2411ZM12.8968 13.0223C11.2353 13.6869 10.4272 15.5725 11.0918 17.2338C11.7564 18.8953 13.642 19.7034 15.3033 19.0388L12.8968 13.0223ZM45.5432 6.94283C47.2046 6.27824 48.0129 4.39265 47.3485 2.73126C46.6837 1.06983 44.798 0.261736 43.1369 0.926281L45.5432 6.94283ZM15.6831 18.8575C17.2444 17.9832 17.8013 16.0087 16.927 14.4475C16.0527 12.8862 14.0782 12.3293 12.517 13.2036L15.6831 18.8575ZM3.30006 22.0786L1.71699 19.2516C0.658377 19.8445 0.019665 20.9791 0.0620442 22.1917C0.10438 23.4042 0.820636 24.4915 1.91805 25.009L3.30006 22.0786ZM12.718 30.1021C14.3365 30.8654 16.2673 30.1725 17.0305 28.5538C17.7938 26.9355 17.1005 25.0046 15.4821 24.2414L12.718 30.1021ZM15.3033 13.0223C13.642 12.3577 11.7564 13.1658 11.0918 14.8273C10.4272 16.4886 11.2353 18.3742 12.8968 19.0388L15.3033 13.0223ZM43.1369 31.135C44.798 31.7994 46.6837 30.9911 47.3485 29.3297C48.0129 27.6686 47.2046 25.783 45.5432 25.1183L43.1369 31.135ZM47.5801 28.1266C47.5801 26.3372 46.1294 24.8866 44.3401 24.8866C42.5507 24.8866 41.1001 26.3372 41.1001 28.1266H47.5801ZM44.3401 64.4146L43.1369 67.423C44.1349 67.8222 45.2663 67.7003 46.1566 67.0977C47.047 66.4946 47.5801 65.4898 47.5801 64.4146H44.3401ZM14.1001 52.3186H10.8601C10.8601 53.6435 11.6666 54.835 12.8968 55.327L14.1001 52.3186ZM17.3401 27.1718C17.3401 25.3824 15.8894 23.9318 14.1001 23.9318C12.3107 23.9318 10.8601 25.3824 10.8601 27.1718H17.3401ZM46.3005 30.706C47.7252 29.6234 48.0026 27.5909 46.9195 26.1661C45.8369 24.7414 43.8044 24.4642 42.3796 25.5471L46.3005 30.706ZM33.5401 36.3346L32.1587 39.2652C33.251 39.7802 34.5391 39.645 35.5005 38.914L33.5401 36.3346ZM15.4821 24.2414C13.8634 23.4785 11.9322 24.1719 11.1693 25.7903C10.4064 27.409 11.0994 29.3392 12.718 30.1021L15.4821 24.2414ZM41.1001 28.1266V64.4146H47.5801V28.1266H41.1001ZM45.5432 67.423L75.7832 55.327L73.3769 49.3101L43.1369 61.4061L45.5432 67.423ZM77.8201 52.3186V27.1718H71.3401V52.3186H77.8201ZM42.3796 30.706L53.1796 38.914L57.1005 33.7551L46.3005 25.5471L42.3796 30.706ZM56.5216 39.2652L75.9616 30.1025L73.1985 24.2411L53.7585 33.4039L56.5216 39.2652ZM45.5432 31.135L75.7832 19.0388L73.3769 13.0223L43.1369 25.1183L45.5432 31.135ZM75.7832 13.0223L45.5432 0.926281L43.1369 6.94283L73.3769 19.0388L75.7832 13.0223ZM72.9968 18.8575L83.7968 24.9055L86.9633 19.2516L76.1633 13.2036L72.9968 18.8575ZM83.9981 19.1481L73.1985 24.2411L75.9616 30.1025L86.762 25.009L83.9981 19.1481ZM15.3033 19.0388L45.5432 6.94283L43.1369 0.926281L12.8968 13.0223L15.3033 19.0388ZM12.517 13.2036L1.71699 19.2516L4.88312 24.9055L15.6831 18.8575L12.517 13.2036ZM1.91805 25.009L12.718 30.1021L15.4821 24.2414L4.68207 19.1481L1.91805 25.009ZM12.8968 19.0388L43.1369 31.135L45.5432 25.1183L15.3033 13.0223L12.8968 19.0388ZM41.1001 28.1266V64.4146H47.5801V28.1266H41.1001ZM45.5432 61.4061L15.3033 49.3101L12.8968 55.327L43.1369 67.423L45.5432 61.4061ZM17.3401 52.3186V27.1718H10.8601V52.3186H17.3401ZM42.3796 25.5471L31.5796 33.7551L35.5005 38.914L46.3005 30.706L42.3796 25.5471ZM34.9214 33.4039L15.4821 24.2414L12.718 30.1021L32.1587 39.2652L34.9214 33.4039Z" fill="#1E52CF"/>
</svg>
