<svg width="72" height="73" viewBox="0 0 72 73" fill="none" xmlns="http://www.w3.org/2000/svg">
<path d="M47.8796 64.1345C47.3096 64.1345 46.7396 63.9245 46.2896 63.4745L41.7296 58.9145C40.8596 58.0445 40.8596 56.6045 41.7296 55.7345C42.5996 54.8645 44.0396 54.8645 44.9096 55.7345L47.8796 58.7045L55.4096 51.1745C56.2796 50.3045 57.7197 50.3045 58.5897 51.1745C59.4597 52.0445 59.4597 53.4845 58.5897 54.3545L49.4696 63.4745C49.0196 63.9245 48.4496 64.1345 47.8796 64.1345Z" fill="white"/>
<path d="M36.4791 35.0346C36.3891 35.0346 36.3291 35.0346 36.2391 35.0346C36.0891 35.0046 35.8791 35.0046 35.6991 35.0346C26.9991 34.7646 20.4291 27.9246 20.4291 19.4946C20.3991 15.3546 22.0191 11.4546 24.9591 8.51456C27.8991 5.57456 31.7991 3.92456 35.9691 3.92456C44.5491 3.92456 51.5391 10.9146 51.5391 19.4946C51.5391 27.9246 44.9691 34.7346 36.5691 35.0346C36.5391 35.0346 36.5091 35.0346 36.4791 35.0346ZM35.9691 8.42456C32.9991 8.42456 30.2391 9.59456 28.1391 11.6646C26.0691 13.7646 24.9291 16.5246 24.9291 19.4646C24.9291 25.4646 29.6091 30.3246 35.5791 30.5046C35.7591 30.4746 36.1491 30.4746 36.5391 30.5046C42.4491 30.2346 47.0391 25.4046 47.0391 19.4646C47.0391 13.4046 42.0591 8.42456 35.9691 8.42456Z" fill="white"/>
<path d="M35.9705 67.8545C29.8505 67.8545 24.0605 66.2645 19.6805 63.3245C15.5105 60.5345 13.2305 56.7245 13.2305 52.6145C13.2305 48.5045 15.5405 44.7245 19.6805 41.9645C28.6505 35.9645 43.2305 35.9645 52.2005 41.9645C53.2205 42.6545 53.5205 44.0645 52.8305 45.0845C52.1405 46.1345 50.7305 46.4045 49.7105 45.7145C42.2405 40.7345 29.6405 40.7345 22.1705 45.7145C19.2905 47.6345 17.7305 50.0645 17.7305 52.6145C17.7305 55.1645 19.2905 57.6545 22.1705 59.5745C25.8005 62.0045 30.6905 63.3245 35.9405 63.3245C37.1705 63.3245 38.1905 64.3445 38.1905 65.5745C38.1905 66.8045 37.2005 67.8545 35.9705 67.8545Z" fill="white"/>
</svg>
