<svg width="75" height="72" viewBox="0 0 75 72" fill="none" xmlns="http://www.w3.org/2000/svg">
<path fill-rule="evenodd" clip-rule="evenodd" d="M37.6005 0C37.5094 0 37.4184 0 37.316 0H37.2932C36.4931 0.0479306 35.7503 0.431288 35.2475 1.0556L9.96159 23.8178L1.44288 31.48C0.275879 32.533 0.18297 34.3324 1.23545 35.4998C2.28792 36.6671 4.08731 36.7606 5.2551 35.7085L6.19443 34.8545V59.7791C6.15319 61.5276 6.20546 63.2771 6.3509 65.0201C6.35082 68.3201 9.02598 70.9953 12.3259 70.9953C14.0763 71.1442 15.8334 71.1993 17.5898 71.1601L20.435 71.1602C22.1854 71.2025 23.9367 71.1513 25.6817 71.0066C28.9816 71.0066 31.6568 68.3314 31.6568 65.0315C31.8035 63.2847 31.8567 61.5315 31.816 59.7791L31.8161 54.0886C31.8161 51.9631 31.8161 50.3898 31.9327 49.4821C31.958 49.2058 32.0084 48.9325 32.0836 48.6656C32.3505 48.59 32.6238 48.5396 32.9001 48.5148C33.8078 48.3981 35.3784 48.3981 37.5066 48.3981C39.6349 48.3981 41.2054 48.398 42.1131 48.5147C42.3903 48.3895 42.716 48.449 42.9311 48.6641C43.1462 48.8792 43.2057 49.2049 43.0805 49.4821C43.1829 50.4039 43.1971 51.9632 43.1971 54.0885V59.779C43.1553 61.5294 43.2075 63.2808 43.3535 65.0256C43.3535 66.6105 43.983 68.1303 45.1036 69.2508C46.2242 70.3714 47.7441 71.0008 49.3287 71.0008C51.0745 71.1475 52.8269 71.2008 54.5783 71.1602H57.4235C59.1739 71.2017 60.9253 71.1495 62.6701 71.0037C64.2548 71.0038 65.7746 70.3743 66.8952 69.2538C68.0157 68.1332 68.6453 66.6134 68.6453 65.0287C68.7919 63.2829 68.8451 61.5306 68.8045 59.7791L68.8046 34.8717L69.7435 35.7252C70.4988 36.4066 71.5603 36.6331 72.528 36.3196C73.4956 36.0059 74.2225 35.1998 74.4344 34.2049C74.6465 33.21 74.3115 32.1776 73.5558 31.4967L73.5561 31.4972L65.0374 23.8349L39.7629 1.07271C39.2373 0.415572 38.4475 0.0249204 37.6062 0.00573083L37.6005 0ZM37.5066 6.70906L49.0869 17.1284L61.239 28.0656C62.4304 29.1438 63.1105 30.6755 63.1112 32.2823V59.779C63.1112 61.9045 63.1112 63.4637 62.9946 64.3855C63.1198 64.6628 63.0603 64.9885 62.8452 65.2035C62.6302 65.4186 62.3045 65.4781 62.0272 65.3529C61.1053 65.4581 59.549 65.4695 57.4207 65.4695H54.5755C52.45 65.4695 50.8908 65.4695 49.969 65.3529C49.6928 65.3275 49.4195 65.2771 49.1525 65.2021C49.0769 64.9352 49.0264 64.6619 49.0016 64.3855C48.8877 63.4637 48.8877 61.9073 48.8877 59.779V54.0885C48.9288 52.3398 48.8765 50.5904 48.7312 48.8473C48.7312 45.5477 46.0562 42.8726 42.7563 42.8724C39.2616 42.6649 35.7576 42.6649 32.2628 42.8724C28.9628 42.8723 26.2877 45.5475 26.2877 48.8474C26.1405 50.5904 26.0863 52.3398 26.1256 54.0885L26.1256 59.779C26.1256 61.9045 26.1256 63.4637 26.0089 64.3855C25.9836 64.6617 25.9331 64.9351 25.858 65.2021C25.5911 65.2775 25.3179 65.328 25.0416 65.353C24.1197 65.4581 22.5633 65.4695 20.4351 65.4695H17.5898C15.4616 65.4695 13.9052 65.4695 12.9834 65.3529C12.7071 65.3282 12.4337 65.2778 12.1668 65.2021C12.0915 64.9351 12.041 64.6618 12.016 64.3855C11.8992 63.4637 11.8992 61.9045 11.8992 59.779V32.2824C11.8997 30.6694 12.5845 29.1327 13.7831 28.0541L25.9264 17.1285L37.5066 6.70915V6.70906Z" fill="#1E52CF"/>
</svg>
