<svg width="22" height="18" viewBox="0 0 22 18" fill="none" xmlns="http://www.w3.org/2000/svg">
<path fill-rule="evenodd" clip-rule="evenodd" d="M2.96603 17.9991C1.31973 17.9869 -0.00662791 16.6454 2.49182e-05 14.9991V3.03305C2.49182e-05 3.00638 2.49182e-05 2.98004 2.49182e-05 2.95404C0.0185186 1.32547 1.33743 0.0114746 2.96603 -0.000976562L18.786 -0.000946045C20.4147 0.0114441 21.7336 1.32547 21.7521 2.95401C21.752 2.98004 21.752 3.00604 21.752 3.03305V14.9991C21.7588 16.6454 20.4325 17.9869 18.7862 17.9991H2.96603ZM1.97701 14.9991C1.97701 15.5471 2.41812 15.9931 2.96609 15.9991H18.786C19.334 15.993 19.7751 15.5471 19.775 14.9991V4.92004L11.4431 10.82C11.1033 11.0603 10.649 11.0603 10.3092 10.82L1.97714 4.92004L1.97701 14.9991ZM10.877 8.77805L19.671 2.55304C19.5047 2.21616 19.1627 2.0018 18.787 1.99902L2.96707 1.99905C2.59139 2.0018 2.24935 2.21616 2.08309 2.55301L10.877 8.77805Z" fill="#EBEFFD"/>
</svg>
