<svg width="22" height="22" viewBox="0 0 22 22" fill="none" xmlns="http://www.w3.org/2000/svg">
<g clip-path="url(#clip0_165_935)">
<path d="M18.7255 3.19878C17.7168 2.1845 16.5163 1.38052 15.1937 0.83355C13.8709 0.286585 12.4524 0.00758879 11.0207 0.0127661C9.10672 0.0146337 7.22671 0.518409 5.56912 1.47364C3.91152 2.42887 2.53448 3.80203 1.57586 5.45558C0.617246 7.10915 0.110737 8.98513 0.107022 10.8955C0.103321 12.806 0.602566 14.6838 1.55476 16.3411L0.0137939 21.9853L5.79241 20.4747C7.38806 21.3607 9.18101 21.833 11.0069 21.848C13.9096 21.8481 16.6947 20.7038 18.756 18.6642C20.8175 16.6247 21.9883 13.8549 22.0138 10.9578C22.0042 9.51219 21.7086 8.08266 21.1444 6.75121C20.5802 5.41974 19.7581 4.21254 18.7255 3.19878ZM11.0207 19.9666C9.39399 19.9677 7.79705 19.5313 6.39778 18.7032L6.06758 18.4972L2.64169 19.4035L3.54975 16.0665L3.32962 15.7231C2.1591 13.8372 1.72225 11.5882 2.10183 9.40219C2.4814 7.21627 3.65103 5.24519 5.38914 3.86239C7.12726 2.47958 9.31309 1.78109 11.5326 1.89923C13.7522 2.01736 15.8513 2.94393 17.4322 4.5034C19.1603 6.19005 20.1495 8.49074 20.1839 10.9029C20.1622 13.3143 19.1871 15.6195 17.471 17.317C15.755 19.0144 13.4367 19.9667 11.0207 19.9666ZM15.9875 13.1826C15.7124 13.0452 14.3778 12.3861 14.1301 12.3037C13.8825 12.2213 13.6898 12.1663 13.511 12.441C13.2419 12.8092 12.9524 13.1621 12.6442 13.4984C12.4928 13.6907 12.3277 13.7044 12.0526 13.4984C10.4837 12.8796 9.17661 11.7398 8.35151 10.2712C8.06258 9.79056 8.62668 9.81802 9.1495 8.78806C9.18817 8.71377 9.20825 8.63137 9.20825 8.54774C9.20825 8.4641 9.18817 8.38171 9.1495 8.30741C9.1495 8.17007 8.53037 6.82425 8.31023 6.28867C8.09009 5.75309 7.86995 5.83549 7.69109 5.82175H7.15451C7.01548 5.82388 6.87851 5.85562 6.75276 5.91482C6.627 5.97402 6.51537 6.05935 6.4253 6.16508C6.11659 6.4647 5.8758 6.82689 5.71915 7.22723C5.56251 7.62757 5.49367 8.05677 5.51723 8.48594C5.6035 9.51329 5.99112 10.4924 6.63168 11.3012C7.80419 13.0532 9.41105 14.4725 11.2958 15.421C12.2844 15.997 13.4332 16.2378 14.5704 16.1077C14.949 16.0327 15.3077 15.879 15.6229 15.6565C15.9383 15.4342 16.2031 15.148 16.4003 14.8168C16.583 14.4125 16.6405 13.963 16.5654 13.5259C16.4416 13.3886 16.2627 13.3199 15.9875 13.1826Z" fill="#EBEFFD"/>
</g>
<defs>
<clipPath id="clip0_165_935">
<rect width="22" height="22" fill="white" transform="translate(0 -0.000976562)"/>
</clipPath>
</defs>
</svg>
