<svg width="18" height="26" viewBox="0 0 18 26" fill="none" xmlns="http://www.w3.org/2000/svg">
<path fill-rule="evenodd" clip-rule="evenodd" d="M8.29999 25.717L6.65601 24.1169C2.40003 19.9649 6.79336e-06 16.2379 6.79336e-06 10.253V9.12595C-0.00292289 6.71564 0.94184 4.40015 2.6305 2.67938C4.30683 0.966064 6.60267 0.000335696 8.99964 0.000244144C11.3966 0.000183108 13.6926 0.965759 15.369 2.67896C17.058 4.39938 18.003 6.71494 17.9999 9.12595L18 10.253C18 16.2379 15.6 19.965 11.342 24.115L9.69697 25.715C9.30891 26.0922 8.69111 26.0922 8.30299 25.715L8.29999 25.717ZM2.00001 9.12595V10.253C2.00001 15.703 4.19001 18.914 8.05402 22.684C8.60902 23.224 8.70801 23.321 9.00001 23.606L9.94501 22.684C13.81 18.914 15.999 15.703 15.999 10.253V9.12595C16.0021 7.24042 15.2644 5.42932 13.9448 4.08279L13.945 4.08295C12.6447 2.75159 10.8624 2.00098 9.00147 2.00098C7.14051 2.00098 5.35822 2.75159 4.05793 4.08295H4.05799C2.73701 5.42889 1.99787 7.24005 2.00001 9.12595ZM5.00001 9.00095C5.00001 6.79181 6.79084 5.00095 9.00001 5.00095C11.2091 5.00095 13 6.79181 13 9.00095C13 11.2101 11.2092 13.0009 9.00001 13.0009C6.79426 12.9927 5.00819 11.2067 5.00001 9.00095ZM7.00001 9.00095C7.00001 10.1055 7.89545 11.0009 9.00001 11.0009C10.1046 11.0009 11 10.1055 11 9.00095C11 7.89639 10.1046 7.00095 9.00001 7.00095C8.46833 6.99692 7.95728 7.20633 7.58131 7.58231C7.20539 7.95825 6.99598 8.4693 7.00001 9.00095Z" fill="#EBEFFD"/>
</svg>
