<svg width="40" height="40" viewBox="0 0 40 40" fill="none" xmlns="http://www.w3.org/2000/svg">
<circle cx="20" cy="20" r="19.5" stroke="white" stroke-opacity="0.6"/>
<path opacity="0.6" d="M28.125 12.2738C27.0936 11.232 25.8651 10.4059 24.5111 9.84387C23.1571 9.28181 21.7048 8.99496 20.2387 9.00007C14.0962 9.00007 9.09 14.0063 9.09 20.1488C9.09 22.1176 9.6075 24.0301 10.575 25.7176L9 31.5001L14.9062 29.9476C16.5375 30.8363 18.3712 31.3088 20.2387 31.3088C26.3812 31.3088 31.3875 26.3026 31.3875 20.1601C31.3875 17.1788 30.2287 14.3776 28.125 12.2738ZM20.2387 29.4188C18.5737 29.4188 16.9425 28.9688 15.5138 28.1251L15.1762 27.9226L11.6663 28.8451L12.6 25.4251L12.375 25.0763C11.45 23.5992 10.9588 21.8917 10.9575 20.1488C10.9575 15.0413 15.12 10.8788 20.2275 10.8788C22.7025 10.8788 25.0312 11.8463 26.775 13.6013C27.6384 14.4608 28.3227 15.4831 28.7881 16.6089C29.2535 17.7348 29.4908 18.9418 29.4863 20.1601C29.5088 25.2676 25.3462 29.4188 20.2387 29.4188ZM25.3237 22.4888C25.0425 22.3538 23.67 21.6788 23.4225 21.5776C23.1637 21.4876 22.9838 21.4426 22.7925 21.7126C22.6013 21.9938 22.0725 22.6238 21.915 22.8038C21.7575 22.9951 21.5887 23.0176 21.3075 22.8713C21.0262 22.7363 20.1262 22.4326 19.0687 21.4876C18.2362 20.7451 17.685 19.8338 17.5162 19.5526C17.3587 19.2713 17.4937 19.1251 17.64 18.9788C17.7637 18.8551 17.9213 18.6526 18.0563 18.4951C18.1913 18.3376 18.2475 18.2138 18.3375 18.0338C18.4275 17.8426 18.3825 17.6851 18.315 17.5501C18.2475 17.4151 17.685 16.0426 17.46 15.4801C17.235 14.9401 16.9987 15.0076 16.83 14.9963H16.29C16.0987 14.9963 15.8062 15.0638 15.5475 15.3451C15.3 15.6263 14.58 16.3013 14.58 17.6738C14.58 19.0463 15.5813 20.3738 15.7163 20.5538C15.8513 20.7451 17.685 23.5576 20.475 24.7613C21.1387 25.0538 21.6562 25.2226 22.0612 25.3463C22.725 25.5601 23.3325 25.5263 23.8162 25.4588C24.3562 25.3801 25.47 24.7838 25.695 24.1313C25.9312 23.4788 25.9313 22.9276 25.8525 22.8038C25.7738 22.6801 25.605 22.6238 25.3237 22.4888Z" fill="#FDF9F9"/>
</svg>
