<svg width="72" height="72" viewBox="0 0 72 72" fill="none" xmlns="http://www.w3.org/2000/svg">
<path d="M43.4919 14.9999L46.3908 21.194C46.7196 21.8818 46.884 22.2256 47.1432 22.4376C47.3715 22.6243 47.6499 22.7396 47.9433 22.769C48.2763 22.8024 48.6357 22.6755 49.3548 22.4217L54.2322 20.7C55.746 20.1656 56.5032 19.8984 57 20.0716C57.432 20.2223 57.7719 20.562 57.9225 20.9942C58.0959 21.4911 57.8286 22.2481 57.294 23.762L55.5723 28.6394C55.3185 29.3583 55.1919 29.7177 55.2252 30.051C55.2546 30.3444 55.3698 30.6225 55.5564 30.8508C55.7685 31.11 56.1123 31.2744 56.8002 31.6035L61.4664 33.8349C62.9148 34.5276 63.639 34.8738 63.8679 35.3478C64.0668 35.7597 64.0668 36.2403 63.8679 36.6522C63.639 37.1262 62.9148 37.4724 61.4664 38.1651L56.8002 40.3965C56.1123 40.7253 55.7685 40.89 55.5564 41.1492C55.3698 41.3775 55.2546 41.6556 55.2252 41.949C55.1919 42.2823 55.3185 42.6417 55.5723 43.3605L57.294 48.2379C57.8286 49.752 58.0959 50.5089 57.9225 51.0057C57.7719 51.438 57.432 51.7776 57 51.9282C56.5032 52.1016 55.746 51.8343 54.2322 51.3L48.0513 49.1181C47.7804 49.0224 47.6448 48.9747 47.5053 48.9534C47.382 48.9342 47.2563 48.9309 47.1321 48.9432C46.9917 48.9567 46.8537 48.9972 46.578 49.0782L44.9919 49.5426M41.994 42C43.086 42 44.1099 41.7084 44.9919 41.1987C46.7865 40.1616 47.994 38.2218 47.994 36C47.994 33.7782 46.7865 31.8384 44.9919 30.8013C44.1099 30.2916 43.086 30 41.994 30M20.9941 47.9994C22.651 47.9994 23.9941 49.3425 23.9941 50.9994C23.9941 52.6563 22.651 53.9994 20.9941 53.9994C19.3373 53.9994 17.9941 52.6563 17.9941 50.9994C17.9941 49.3425 19.3373 47.9994 20.9941 47.9994ZM20.9941 47.9994L20.9729 31.5M20.9941 50.9994L20.9729 51.0207M8.99414 50.9994C8.99414 57.627 14.3667 62.9994 20.9941 62.9994C27.6216 62.9994 32.994 57.627 32.994 50.9994C32.994 47.9562 31.8612 45.1773 29.9941 43.062V18C29.9941 13.0295 25.9647 9 20.9941 9C16.0236 9 11.9941 13.0295 11.9941 18V43.062C10.127 45.1773 8.99414 47.9562 8.99414 50.9994Z" stroke="#1E52CF" stroke-width="5" stroke-linecap="round" stroke-linejoin="round"/>
</svg>
