<svg width="360" height="62" viewBox="0 0 360 62" fill="none" xmlns="http://www.w3.org/2000/svg">
<path d="M2.87737 15.6458H0L2.87737 2.65929H19.3264V1H30.7975L27.5461 15.6458H15.8639V21.4102H29.7808L27.5461 32.0181H15.8639V37.7824H29.7808L26.9034 50.769H2.87737V15.6458Z" fill="#1E52CF"/>
<path d="M35.6273 13.7667H32.7499L35.6273 0H48.6139C50.1988 0 51.5799 0.0508373 52.7573 0.152512C53.9394 0.254187 54.9848 0.447368 55.8936 0.732057C56.8072 1.01166 57.6248 1.36752 58.349 1.79964C59.0707 2.2343 59.7925 2.78334 60.5166 3.44677C62.3893 5.23116 63.84 7.52392 64.871 10.3301C65.9069 13.1313 66.4248 16.212 66.4248 19.5724C66.4248 23.497 65.7486 27.0429 64.401 30.2075C63.0583 33.3671 61.2311 35.7081 58.9244 37.2333C56.6154 38.8677 53.1793 39.6836 48.6139 39.6836V51H35.6273V13.7667ZM49.1222 26.4557C50.465 26.4557 51.568 25.833 52.4312 24.5849C53.2992 23.3394 53.7356 21.7457 53.7356 19.8062C53.7356 15.6249 52.0283 13.4312 48.6139 13.2279V26.4557H49.1222Z" fill="#C1292E"/>
<path d="M72.8478 34.0489C74.6318 35.2958 76.5069 36.2693 78.4779 36.9647C80.4465 37.6624 82.2712 38.0101 83.9545 38.0101C84.9184 38.0101 85.7121 37.7703 86.3331 37.2908C86.9589 36.8112 87.2731 36.1638 87.2731 35.3437C87.2731 34.9097 87.1987 34.5141 87.0525 34.1544C86.911 33.79 86.6232 33.4159 86.1892 33.0322C85.76 32.6486 85.1726 32.2434 84.4245 31.8142C83.6811 31.3801 82.71 30.8742 81.5087 30.2987C79.2452 29.2389 77.4996 28.3229 76.2719 27.5556C75.049 26.7835 73.982 25.9635 73.0684 25.1003C71.8144 23.9949 70.8624 22.6018 70.2102 20.9185C69.5628 19.2376 69.2415 17.4345 69.2415 15.509C69.2415 13.4445 69.5772 11.5455 70.2486 9.81184C70.9248 8.08062 71.8743 6.5772 73.0972 5.30396C74.3249 4.03312 75.7564 3.03563 77.3941 2.31149C79.0294 1.58975 80.8325 1.22768 82.8035 1.22768C83.813 1.22768 84.7625 1.29002 85.6521 1.40991C86.5393 1.5322 87.7071 1.75999 89.1529 2.09089L89.6613 0L100.039 2.5225L96.7972 15.72C95.4472 14.6219 93.9534 13.7706 92.318 13.1688C90.6875 12.5693 89.1002 12.2672 87.5608 12.2672C86.3571 12.2672 85.3836 12.495 84.6355 12.9482C83.8921 13.4038 83.5229 14.0176 83.5229 14.7897C83.5229 15.1733 83.6044 15.5354 83.7722 15.8735C83.9449 16.2068 84.271 16.5641 84.7506 16.9477C85.2301 17.3314 85.8775 17.7678 86.6976 18.2521C87.5152 18.7317 88.5511 19.2856 89.8051 19.9114C91.0064 20.5325 92.0255 21.072 92.8647 21.5323C93.7088 21.9879 94.4305 22.4195 95.0324 22.8272C95.6318 23.2372 96.1474 23.6328 96.5766 24.0165C97.0106 24.4001 97.4206 24.8365 97.8042 25.3209C99.9191 27.8674 100.979 31.0157 100.979 34.7683C100.979 37.1229 100.581 39.2857 99.7896 41.2615C98.996 43.2325 97.9025 44.9134 96.5094 46.3065C95.1139 47.702 93.4426 48.7954 91.4932 49.5867C89.5486 50.378 87.3977 50.776 85.0383 50.776C82.4415 50.776 79.9166 50.4164 77.4612 49.7018C75.0106 48.9801 72.4666 47.8483 69.8266 46.3065L72.8478 34.0489Z" fill="#1E52CF"/>
<mask id="path-4-inside-1_137_133" fill="white">
<path d="M141.801 45.0427C137.374 48.9415 132.732 50.8886 127.872 50.8886C124.985 50.8886 122.22 50.1788 119.578 48.7593C116.938 47.3374 114.701 45.3544 112.869 42.8079C109.795 38.5326 108.255 33.1975 108.255 26.8002C108.255 22.0813 109.013 17.8611 110.528 14.1397C112.041 10.4183 114.166 7.44744 116.902 5.22947C118.451 3.985 120.136 3.02828 121.956 2.35929C123.788 1.67831 125.613 1.33782 127.433 1.33782C128.114 1.33782 128.764 1.38578 129.387 1.47929C130.008 1.57281 130.826 1.74305 131.835 1.99002L132.557 0.474609L142.223 4.94892L136.818 19.2998C135.562 17.6213 134.346 16.4105 133.173 15.6719C131.998 14.9214 130.644 14.545 129.104 14.545C124.34 14.545 121.956 18.4606 121.956 26.2894C121.956 30.0468 122.532 32.9577 123.68 35.0246C124.843 37.0892 126.457 38.1226 128.524 38.1226C131.507 38.1226 134.269 36.0102 136.818 31.7828L141.801 45.0427ZM159.103 14.3148C161.312 14.3148 163.343 14.7608 165.196 15.6551C167.052 16.5471 168.649 17.8084 169.987 19.4389C171.337 21.0718 172.38 23.0092 173.121 25.2512C173.871 27.4811 174.248 29.9221 174.248 32.5765C174.248 35.2644 173.871 37.7414 173.121 40.0073C172.38 42.2612 171.337 44.1915 169.987 45.8004C168.649 47.4093 167.028 48.6586 165.127 49.5506C163.225 50.4426 161.146 50.8886 158.892 50.8886C156.72 50.8886 154.732 50.4306 152.924 49.517C151.128 48.6011 149.553 47.3254 148.203 45.6949C146.865 44.062 145.822 42.1318 145.069 39.9018C144.33 37.6598 143.961 35.2165 143.961 32.5765C143.961 29.9221 144.33 27.4811 145.069 25.2512C145.822 23.0092 146.865 21.0838 148.203 19.4749C149.553 17.8659 151.15 16.6047 152.994 15.6887C154.847 14.7727 156.885 14.3148 159.103 14.3148ZM159.103 26.3614C158 26.3614 157.156 26.9296 156.569 28.0686C155.993 29.1956 155.706 30.8141 155.706 32.929C155.706 35.0894 155.993 36.7367 156.569 37.8756C157.156 39.0026 158 39.5661 159.103 39.5661C160.206 39.5661 161.045 39.0026 161.621 37.8756C162.196 36.7367 162.484 35.1349 162.484 33.068C162.484 28.5961 161.357 26.3614 159.103 26.3614ZM178.573 26.8721H175.898L178.573 15.0389H190.407V25.6372L192.713 15.0389C193.43 14.991 194.027 14.967 194.509 14.967C194.991 14.967 195.425 14.967 195.814 14.967C198.02 14.967 199.722 15.1732 200.919 15.5832C202.13 15.9956 203.192 16.7509 204.105 17.8563C204.822 18.7243 205.34 19.7098 205.657 20.8128C205.973 21.9158 206.201 23.5248 206.343 25.6372L208.649 15.0389C210.527 15.0389 212.042 15.0605 213.193 15.1084C214.344 15.154 215.277 15.2547 215.991 15.4082C216.72 15.5496 217.312 15.7535 217.77 16.0244C218.228 16.281 218.722 16.6287 219.25 17.0627C220.94 18.5061 221.88 20.4795 222.067 22.9805C222.115 23.4145 222.149 23.7765 222.173 24.0715C222.197 24.352 222.221 24.7333 222.242 25.2152C222.266 25.6972 222.278 26.3494 222.278 27.1694C222.278 27.9799 222.278 29.1308 222.278 30.6223V38.6334H224.815L222.278 50.1668H210.445V35.0246C210.445 33.5332 210.445 32.3703 210.445 31.5382C210.445 30.6918 210.433 30.0516 210.412 29.6176C210.388 29.1836 210.34 28.8839 210.27 28.7208C210.198 28.5434 210.117 28.3611 210.023 28.1741C209.776 27.7401 209.39 27.3924 208.86 27.1359C208.333 26.8649 207.757 26.7546 207.136 26.8002C206.796 26.8002 206.53 26.8241 206.343 26.8721V50.1668H194.509V34.442C194.509 33.2934 194.497 32.3463 194.473 31.6078C194.452 30.8573 194.428 30.2506 194.404 29.795C194.38 29.337 194.334 28.9894 194.262 28.7544C194.193 28.5074 194.111 28.2916 194.018 28.1046C193.581 27.2342 192.644 26.8002 191.2 26.8002C191.104 26.8002 190.994 26.8002 190.865 26.8002C190.747 26.8002 190.594 26.8241 190.407 26.8721V50.1668H178.573V26.8721ZM228.266 26.8721H225.59L228.266 15.0389H240.099V25.6372L242.336 15.0389C244.837 15.0389 246.808 15.1852 248.251 15.4777C249.695 15.7606 250.971 16.2402 252.074 16.9212C254.234 18.2136 255.888 20.2685 257.039 23.086C258.2 25.9034 258.783 29.2531 258.783 33.14C258.783 35.7464 258.466 38.1178 257.831 40.2543C257.21 42.3907 256.322 44.2035 255.172 45.6949C254.023 47.1863 252.625 48.3421 250.983 49.1645C249.35 49.9726 247.525 50.3778 245.506 50.3778C243.626 50.3778 241.825 50.0445 240.099 49.3755V61.7003H228.266V26.8721ZM240.099 32.2072C240.099 33.5572 240.099 34.5954 240.099 35.322C240.099 36.0389 240.123 36.5904 240.171 36.9789C240.216 37.3529 240.286 37.6191 240.382 37.7701C240.475 37.9116 240.598 38.0771 240.751 38.2641C241.233 38.8396 241.924 39.1273 242.828 39.1273C245.329 39.1273 246.58 37.2786 246.58 33.5788C246.58 32.2768 246.484 31.1977 246.297 30.3393C246.11 29.4713 245.763 28.7856 245.259 28.2796C244.753 27.7737 244.079 27.4164 243.233 27.2054C242.389 26.9824 241.343 26.8721 240.099 26.8721V32.2072ZM275.217 50.0253C273.009 49.9318 271.314 49.704 270.127 49.3396C268.954 48.9751 267.839 48.3133 266.782 47.3494C264.998 45.7644 263.648 43.6999 262.732 41.1511C261.828 38.6046 261.375 35.6697 261.375 32.3463C261.375 29.7063 261.686 27.3061 262.31 25.1457C262.931 22.9733 263.818 21.1198 264.969 19.5804C266.13 18.0434 267.539 16.8684 269.194 16.058C270.848 15.2379 272.688 14.8255 274.706 14.8255C275.821 14.8255 276.819 14.9502 277.699 15.1972C278.591 15.4321 279.519 15.8134 280.48 16.3409V15.0389H291.875V38.6334H294.409L291.875 50.1668H280.058V39.5661L277.663 50.1668L275.217 50.0253ZM280.058 31.8547C280.058 30.9843 280.042 30.2746 280.006 29.7231C279.982 29.1716 279.936 28.7136 279.864 28.3491C279.795 27.9871 279.713 27.6993 279.617 27.4883C279.524 27.2653 279.377 27.0591 279.178 26.8721C278.651 26.2966 278.003 26.0089 277.241 26.0089C276.138 26.0089 275.246 26.5724 274.565 27.6993C273.896 28.8263 273.56 30.3058 273.56 32.1353C273.56 36.5137 275.27 38.7029 278.684 38.7029C278.778 38.7029 278.967 38.7029 279.248 38.7029C279.543 38.7029 279.811 38.6813 280.058 38.6334V31.8547ZM297.793 26.8721H295.117L297.793 15.0389H309.626V25.6372L312.002 15.0389C313.445 15.0389 314.572 15.0389 315.383 15.0389C316.205 15.0389 316.846 15.0485 317.304 15.0725C317.762 15.0965 318.131 15.1372 318.411 15.1972C318.706 15.2427 319.047 15.3147 319.433 15.4082C320.442 15.6432 321.387 16.1011 322.269 16.7821C323.161 17.4511 323.871 18.2903 324.399 19.2998C324.694 19.7794 324.921 20.2374 325.087 20.6738C325.262 21.1078 325.384 21.6473 325.456 22.2923C325.526 22.9373 325.574 23.7885 325.598 24.8459C325.619 25.9034 325.631 27.3229 325.631 29.1069V38.6334H328.149L325.631 50.1668H313.798V34.5835C313.798 33.339 313.798 32.3583 313.798 31.6437C313.798 30.9148 313.786 30.3345 313.764 29.9005C313.74 29.4641 313.692 29.1308 313.623 28.8959C313.551 28.6489 313.469 28.4091 313.376 28.1741C312.894 27.2581 311.908 26.8002 310.417 26.8002C310.324 26.8002 310.213 26.8002 310.084 26.8002C309.966 26.8002 309.813 26.8241 309.626 26.8721V50.1668H297.793V26.8721ZM332.779 49.0063C334.937 49.9678 336.728 50.6536 338.148 51.066C339.57 51.476 340.972 51.6822 342.358 51.6822C344.284 51.6822 345.626 51.1068 346.389 49.9558C347.163 48.7929 347.552 46.7739 347.552 43.8989V38.6334L345.545 47.4909H340.349C339.095 47.4909 337.891 47.2679 336.74 46.8219C335.589 46.3639 334.604 45.7237 333.781 44.9012C332.961 44.0812 332.379 42.9998 332.038 41.6618C331.71 40.3118 331.547 38.3168 331.547 35.6745V26.8721H328.868L331.547 15.0389H343.308V28.8263C343.308 31.2193 343.332 32.8882 343.38 33.8257C343.425 34.7657 343.543 35.4299 343.73 35.8159C344.166 36.7319 345.152 37.1899 346.689 37.1899C346.782 37.1899 346.912 37.1899 347.077 37.1899C347.252 37.1899 347.41 37.1659 347.552 37.1203V15.0389H359.385V46.9969C359.385 48.5819 359.349 49.939 359.28 51.066C359.21 52.193 359.061 53.1665 358.838 53.9889C358.627 54.8114 358.352 55.5211 358.011 56.1182C357.683 56.7176 357.253 57.3051 356.726 57.8806C355.424 59.2305 353.726 60.252 351.638 60.945C349.547 61.6475 347.154 62 344.454 62C342.387 62 340.092 61.7842 337.567 61.3478C335.045 60.9138 332.702 60.3383 330.542 59.6238L332.779 49.0063Z"/>
</mask>
<path d="M141.801 45.0427C137.374 48.9415 132.732 50.8886 127.872 50.8886C124.985 50.8886 122.22 50.1788 119.578 48.7593C116.938 47.3374 114.701 45.3544 112.869 42.8079C109.795 38.5326 108.255 33.1975 108.255 26.8002C108.255 22.0813 109.013 17.8611 110.528 14.1397C112.041 10.4183 114.166 7.44744 116.902 5.22947C118.451 3.985 120.136 3.02828 121.956 2.35929C123.788 1.67831 125.613 1.33782 127.433 1.33782C128.114 1.33782 128.764 1.38578 129.387 1.47929C130.008 1.57281 130.826 1.74305 131.835 1.99002L132.557 0.474609L142.223 4.94892L136.818 19.2998C135.562 17.6213 134.346 16.4105 133.173 15.6719C131.998 14.9214 130.644 14.545 129.104 14.545C124.34 14.545 121.956 18.4606 121.956 26.2894C121.956 30.0468 122.532 32.9577 123.68 35.0246C124.843 37.0892 126.457 38.1226 128.524 38.1226C131.507 38.1226 134.269 36.0102 136.818 31.7828L141.801 45.0427ZM159.103 14.3148C161.312 14.3148 163.343 14.7608 165.196 15.6551C167.052 16.5471 168.649 17.8084 169.987 19.4389C171.337 21.0718 172.38 23.0092 173.121 25.2512C173.871 27.4811 174.248 29.9221 174.248 32.5765C174.248 35.2644 173.871 37.7414 173.121 40.0073C172.38 42.2612 171.337 44.1915 169.987 45.8004C168.649 47.4093 167.028 48.6586 165.127 49.5506C163.225 50.4426 161.146 50.8886 158.892 50.8886C156.72 50.8886 154.732 50.4306 152.924 49.517C151.128 48.6011 149.553 47.3254 148.203 45.6949C146.865 44.062 145.822 42.1318 145.069 39.9018C144.33 37.6598 143.961 35.2165 143.961 32.5765C143.961 29.9221 144.33 27.4811 145.069 25.2512C145.822 23.0092 146.865 21.0838 148.203 19.4749C149.553 17.8659 151.15 16.6047 152.994 15.6887C154.847 14.7727 156.885 14.3148 159.103 14.3148ZM159.103 26.3614C158 26.3614 157.156 26.9296 156.569 28.0686C155.993 29.1956 155.706 30.8141 155.706 32.929C155.706 35.0894 155.993 36.7367 156.569 37.8756C157.156 39.0026 158 39.5661 159.103 39.5661C160.206 39.5661 161.045 39.0026 161.621 37.8756C162.196 36.7367 162.484 35.1349 162.484 33.068C162.484 28.5961 161.357 26.3614 159.103 26.3614ZM178.573 26.8721H175.898L178.573 15.0389H190.407V25.6372L192.713 15.0389C193.43 14.991 194.027 14.967 194.509 14.967C194.991 14.967 195.425 14.967 195.814 14.967C198.02 14.967 199.722 15.1732 200.919 15.5832C202.13 15.9956 203.192 16.7509 204.105 17.8563C204.822 18.7243 205.34 19.7098 205.657 20.8128C205.973 21.9158 206.201 23.5248 206.343 25.6372L208.649 15.0389C210.527 15.0389 212.042 15.0605 213.193 15.1084C214.344 15.154 215.277 15.2547 215.991 15.4082C216.72 15.5496 217.312 15.7535 217.77 16.0244C218.228 16.281 218.722 16.6287 219.25 17.0627C220.94 18.5061 221.88 20.4795 222.067 22.9805C222.115 23.4145 222.149 23.7765 222.173 24.0715C222.197 24.352 222.221 24.7333 222.242 25.2152C222.266 25.6972 222.278 26.3494 222.278 27.1694C222.278 27.9799 222.278 29.1308 222.278 30.6223V38.6334H224.815L222.278 50.1668H210.445V35.0246C210.445 33.5332 210.445 32.3703 210.445 31.5382C210.445 30.6918 210.433 30.0516 210.412 29.6176C210.388 29.1836 210.34 28.8839 210.27 28.7208C210.198 28.5434 210.117 28.3611 210.023 28.1741C209.776 27.7401 209.39 27.3924 208.86 27.1359C208.333 26.8649 207.757 26.7546 207.136 26.8002C206.796 26.8002 206.53 26.8241 206.343 26.8721V50.1668H194.509V34.442C194.509 33.2934 194.497 32.3463 194.473 31.6078C194.452 30.8573 194.428 30.2506 194.404 29.795C194.38 29.337 194.334 28.9894 194.262 28.7544C194.193 28.5074 194.111 28.2916 194.018 28.1046C193.581 27.2342 192.644 26.8002 191.2 26.8002C191.104 26.8002 190.994 26.8002 190.865 26.8002C190.747 26.8002 190.594 26.8241 190.407 26.8721V50.1668H178.573V26.8721ZM228.266 26.8721H225.59L228.266 15.0389H240.099V25.6372L242.336 15.0389C244.837 15.0389 246.808 15.1852 248.251 15.4777C249.695 15.7606 250.971 16.2402 252.074 16.9212C254.234 18.2136 255.888 20.2685 257.039 23.086C258.2 25.9034 258.783 29.2531 258.783 33.14C258.783 35.7464 258.466 38.1178 257.831 40.2543C257.21 42.3907 256.322 44.2035 255.172 45.6949C254.023 47.1863 252.625 48.3421 250.983 49.1645C249.35 49.9726 247.525 50.3778 245.506 50.3778C243.626 50.3778 241.825 50.0445 240.099 49.3755V61.7003H228.266V26.8721ZM240.099 32.2072C240.099 33.5572 240.099 34.5954 240.099 35.322C240.099 36.0389 240.123 36.5904 240.171 36.9789C240.216 37.3529 240.286 37.6191 240.382 37.7701C240.475 37.9116 240.598 38.0771 240.751 38.2641C241.233 38.8396 241.924 39.1273 242.828 39.1273C245.329 39.1273 246.58 37.2786 246.58 33.5788C246.58 32.2768 246.484 31.1977 246.297 30.3393C246.11 29.4713 245.763 28.7856 245.259 28.2796C244.753 27.7737 244.079 27.4164 243.233 27.2054C242.389 26.9824 241.343 26.8721 240.099 26.8721V32.2072ZM275.217 50.0253C273.009 49.9318 271.314 49.704 270.127 49.3396C268.954 48.9751 267.839 48.3133 266.782 47.3494C264.998 45.7644 263.648 43.6999 262.732 41.1511C261.828 38.6046 261.375 35.6697 261.375 32.3463C261.375 29.7063 261.686 27.3061 262.31 25.1457C262.931 22.9733 263.818 21.1198 264.969 19.5804C266.13 18.0434 267.539 16.8684 269.194 16.058C270.848 15.2379 272.688 14.8255 274.706 14.8255C275.821 14.8255 276.819 14.9502 277.699 15.1972C278.591 15.4321 279.519 15.8134 280.48 16.3409V15.0389H291.875V38.6334H294.409L291.875 50.1668H280.058V39.5661L277.663 50.1668L275.217 50.0253ZM280.058 31.8547C280.058 30.9843 280.042 30.2746 280.006 29.7231C279.982 29.1716 279.936 28.7136 279.864 28.3491C279.795 27.9871 279.713 27.6993 279.617 27.4883C279.524 27.2653 279.377 27.0591 279.178 26.8721C278.651 26.2966 278.003 26.0089 277.241 26.0089C276.138 26.0089 275.246 26.5724 274.565 27.6993C273.896 28.8263 273.56 30.3058 273.56 32.1353C273.56 36.5137 275.27 38.7029 278.684 38.7029C278.778 38.7029 278.967 38.7029 279.248 38.7029C279.543 38.7029 279.811 38.6813 280.058 38.6334V31.8547ZM297.793 26.8721H295.117L297.793 15.0389H309.626V25.6372L312.002 15.0389C313.445 15.0389 314.572 15.0389 315.383 15.0389C316.205 15.0389 316.846 15.0485 317.304 15.0725C317.762 15.0965 318.131 15.1372 318.411 15.1972C318.706 15.2427 319.047 15.3147 319.433 15.4082C320.442 15.6432 321.387 16.1011 322.269 16.7821C323.161 17.4511 323.871 18.2903 324.399 19.2998C324.694 19.7794 324.921 20.2374 325.087 20.6738C325.262 21.1078 325.384 21.6473 325.456 22.2923C325.526 22.9373 325.574 23.7885 325.598 24.8459C325.619 25.9034 325.631 27.3229 325.631 29.1069V38.6334H328.149L325.631 50.1668H313.798V34.5835C313.798 33.339 313.798 32.3583 313.798 31.6437C313.798 30.9148 313.786 30.3345 313.764 29.9005C313.74 29.4641 313.692 29.1308 313.623 28.8959C313.551 28.6489 313.469 28.4091 313.376 28.1741C312.894 27.2581 311.908 26.8002 310.417 26.8002C310.324 26.8002 310.213 26.8002 310.084 26.8002C309.966 26.8002 309.813 26.8241 309.626 26.8721V50.1668H297.793V26.8721ZM332.779 49.0063C334.937 49.9678 336.728 50.6536 338.148 51.066C339.57 51.476 340.972 51.6822 342.358 51.6822C344.284 51.6822 345.626 51.1068 346.389 49.9558C347.163 48.7929 347.552 46.7739 347.552 43.8989V38.6334L345.545 47.4909H340.349C339.095 47.4909 337.891 47.2679 336.74 46.8219C335.589 46.3639 334.604 45.7237 333.781 44.9012C332.961 44.0812 332.379 42.9998 332.038 41.6618C331.71 40.3118 331.547 38.3168 331.547 35.6745V26.8721H328.868L331.547 15.0389H343.308V28.8263C343.308 31.2193 343.332 32.8882 343.38 33.8257C343.425 34.7657 343.543 35.4299 343.73 35.8159C344.166 36.7319 345.152 37.1899 346.689 37.1899C346.782 37.1899 346.912 37.1899 347.077 37.1899C347.252 37.1899 347.41 37.1659 347.552 37.1203V15.0389H359.385V46.9969C359.385 48.5819 359.349 49.939 359.28 51.066C359.21 52.193 359.061 53.1665 358.838 53.9889C358.627 54.8114 358.352 55.5211 358.011 56.1182C357.683 56.7176 357.253 57.3051 356.726 57.8806C355.424 59.2305 353.726 60.252 351.638 60.945C349.547 61.6475 347.154 62 344.454 62C342.387 62 340.092 61.7842 337.567 61.3478C335.045 60.9138 332.702 60.3383 330.542 59.6238L332.779 49.0063Z" stroke="#C1292E" stroke-width="192" mask="url(#path-4-inside-1_137_133)"/>
</svg>
