<svg width="128" height="115" viewBox="0 0 128 115" fill="none" xmlns="http://www.w3.org/2000/svg">
<g filter="url(#filter0_d_195_3535)">
<path d="M8.9091 4.14551V38.608H39.4546C39.4546 38.608 55.8183 38.1819 55.8183 40.9091C55.8183 43.6364 39.4546 42.9529 39.4546 42.9529H8.9091V72.4364H36.7273V76.5819H4V0H36.7273V4.14551H8.9091Z" fill="#1E52CF"/>
<path fill-rule="evenodd" clip-rule="evenodd" d="M86.8682 30.8608C87.9862 28.169 88.5452 25.0821 88.5452 21.6C88.5452 16.7181 87.4174 12.588 85.1617 9.20989C85.4949 8.90251 85.8479 8.60552 86.2206 8.31894C89.735 5.54596 94.0547 4.15947 99.1798 4.15947C102.987 4.15947 106.245 4.83494 108.954 6.18588C111.736 7.46572 113.86 9.10107 115.324 11.0919C116.861 13.0828 117.85 15.0381 118.289 16.9578H123.561C122.755 12.194 120.266 8.17674 116.093 4.90604C111.919 1.63535 106.428 0 99.6191 0C94.9333 0 90.7966 0.853228 87.2091 2.55968C85.3212 3.45767 83.6563 4.53286 82.2145 5.78526C78.068 1.92842 71.8146 0 63.4543 0H42.1815V76.5819H47.0906V42.9819H63.4543C71.7452 42.9819 77.9997 41.1273 82.2179 37.4182C83.0534 36.6692 83.8061 35.8617 84.476 34.9957C85.2098 35.4297 85.9743 35.8163 86.7698 36.1554C89.8448 37.4352 93.8717 38.7151 98.8503 39.9949C103.39 41.2036 106.977 42.3413 109.613 43.4078C112.322 44.4743 114.555 46.0741 116.312 48.2072C118.143 50.3403 119.058 53.2199 119.058 56.8461C119.058 59.6902 118.289 62.2854 116.752 64.6318C115.214 66.9781 113.018 68.8268 110.162 70.1777C107.38 71.5287 104.085 72.2041 100.278 72.2041C93.7618 72.2041 88.893 70.6754 85.6715 67.618C82.5233 64.5607 80.6563 61.0767 80.0705 57.166H74.9088C75.2017 60.7211 76.3732 63.9563 78.4232 66.8715C80.5464 69.7867 83.4751 72.0975 87.2091 73.8039C90.943 75.5104 95.2994 76.3636 100.278 76.3636C105.33 76.3636 109.613 75.4393 113.127 73.5906C116.715 71.6709 119.424 69.2178 121.254 66.2316C123.085 63.2453 124 60.0812 124 56.7394C124 52.1889 122.938 48.5983 120.815 45.9675C118.765 43.2656 116.239 41.3103 113.237 40.1016C110.309 38.8217 106.318 37.5063 101.266 36.1554C96.7271 35.0178 93.1029 33.9157 90.3939 32.8492C89.1254 32.3016 87.9502 31.6389 86.8682 30.8608ZM83.0183 27.034C83.4302 25.3963 83.6361 23.585 83.6361 21.6C83.6361 18.4404 83.1268 15.7091 82.1081 13.4061C82.8085 11.8404 83.8264 10.4417 85.1617 9.20989C84.3594 8.00846 83.4146 6.90214 82.327 5.89092C82.2897 5.85554 82.2522 5.82032 82.2145 5.78526C81.0552 6.79219 80.0401 7.91367 79.1692 9.14969C79.0602 9.04357 78.9491 8.93913 78.8361 8.83637C75.6361 5.85455 70.5088 4.36363 63.4543 4.36363H47.0906V38.6182H63.4543C71.7868 38.6182 77.5391 36.4425 80.7112 32.091C81.86 33.2225 83.115 34.1907 84.476 34.9957C85.4473 33.7403 86.2447 32.362 86.8682 30.8608C85.702 30.0222 84.6442 29.0496 83.6947 27.9431C83.4533 27.6524 83.2279 27.3494 83.0183 27.034ZM83.0183 27.034C81.6389 24.9577 80.9491 22.3456 80.9491 19.1976C80.9491 17.0639 81.3354 15.1334 82.1081 13.4061C81.3851 11.7716 80.4054 10.3527 79.1692 9.14969C79.0649 9.29775 78.9627 9.44744 78.8625 9.59878C76.9589 12.514 76.0071 15.7491 76.0071 19.3042C76.0071 23.9258 77.0321 27.5876 79.0821 30.2895C79.5991 30.93 80.1422 31.5306 80.7112 32.091C81.765 30.6455 82.534 28.9598 83.0183 27.034Z" fill="#C1292E"/>
<path fill-rule="evenodd" clip-rule="evenodd" d="M83.0182 27.0341C81.6387 24.9578 80.949 22.3456 80.949 19.1976C80.949 17.0639 81.3353 15.1334 82.108 13.4061C81.3849 11.7715 80.4053 10.3527 79.1691 9.14968C79.0648 9.29774 78.9625 9.44744 78.8623 9.59878C76.9587 12.514 76.0069 15.7491 76.0069 19.3042C76.0069 23.3481 76.7917 26.6572 78.3613 29.2313C78.5855 29.599 78.8257 29.9517 79.082 30.2895C79.599 30.93 80.142 31.5306 80.7111 32.091C81.7649 30.6455 82.5339 28.9598 83.0182 27.0341ZM84.4759 34.9958C85.4472 33.7403 86.2446 32.362 86.8681 30.8608C87.95 31.6389 89.1253 32.3016 90.3938 32.8492C93.1027 33.9157 96.7269 35.0178 101.266 36.1554C106.318 37.5063 110.308 38.8217 113.237 40.1016C116.239 41.3103 118.765 43.2656 120.815 45.9675C122.938 48.5983 124 52.1889 124 56.7394C124 60.0812 123.085 63.2453 121.254 66.2316C121.025 66.6048 120.783 66.9698 120.527 67.3264C118.733 69.8228 116.266 71.9108 113.127 73.5906C109.613 75.4393 105.33 76.3636 100.278 76.3636C99.9667 76.3636 99.658 76.3603 99.3517 76.3536C94.7571 76.2536 90.7095 75.4037 87.2089 73.8039C86.9755 73.6973 86.7453 73.5883 86.5182 73.4769C83.112 71.8063 80.4136 69.6045 78.423 66.8715C78.391 66.8259 78.3592 66.7803 78.3276 66.7346C78.1064 66.4147 77.8957 66.0909 77.6955 65.7633C76.0939 63.1425 75.1649 60.2768 74.9087 57.166H80.0704C80.6561 61.0767 82.5231 64.5607 85.6714 67.618C88.8929 70.6754 93.7617 72.2041 100.278 72.2041C104.085 72.2041 107.38 71.5287 110.162 70.1777C113.017 68.8268 115.214 66.9781 116.751 64.6318C118.289 62.2854 119.058 59.6902 119.058 56.8461C119.058 53.2199 118.142 50.3403 116.312 48.2072C116.092 47.9406 115.865 47.6823 115.631 47.4323C113.989 45.6825 111.983 44.341 109.613 43.4078C109.283 43.2745 108.939 43.1401 108.58 43.0045C106.065 42.0558 102.822 41.0526 98.8502 39.9949C98.539 39.9149 98.2316 39.8349 97.9278 39.7549C93.3719 38.5551 89.6525 37.3552 86.7696 36.1554C86.7199 36.1342 86.6703 36.1128 86.6208 36.0913C85.8787 35.7678 85.1638 35.4026 84.4759 34.9958ZM82.2143 5.78525C82.252 5.82031 82.2895 5.85553 82.3269 5.89092C83.4144 6.90213 84.3593 8.00845 85.1615 9.20987C85.4739 8.92171 85.8037 8.64268 86.1508 8.3728C86.174 8.3548 86.1972 8.33685 86.2205 8.31894C89.5152 5.71927 93.5177 4.3382 98.2281 4.17572C98.5421 4.16489 98.8593 4.15947 99.1796 4.15947C102.511 4.15947 105.422 4.67663 107.912 5.71094C108.268 5.8587 108.615 6.01702 108.954 6.18588C111.388 7.30574 113.318 8.69778 114.744 10.362C114.947 10.5998 115.141 10.8431 115.324 11.0919C116.669 12.8339 117.594 14.5487 118.098 16.2363C118.17 16.4774 118.234 16.7179 118.289 16.9578H123.56C122.755 12.194 120.266 8.17674 116.092 4.90604C111.919 1.63535 106.428 0 99.6189 0C94.9331 0 90.7965 0.853228 87.2089 2.55968C85.793 3.23317 84.5025 4.00633 83.3375 4.87918C82.9492 5.17013 82.5748 5.47215 82.2143 5.78525Z" fill="#1E52CF"/>
</g>
<path d="M2.248 97.902C2.248 96.4287 2.54267 95.146 3.132 94.054C3.72133 92.9447 4.536 92.0953 5.576 91.506C6.616 90.8993 7.80333 90.596 9.138 90.596C10.8887 90.596 12.3273 91.0293 13.454 91.896C14.598 92.7627 15.3347 93.9413 15.664 95.432H13.714C13.4713 94.4093 12.9427 93.612 12.128 93.04C11.3307 92.4507 10.334 92.156 9.138 92.156C8.18467 92.156 7.32667 92.3727 6.564 92.806C5.80133 93.2393 5.19467 93.8893 4.744 94.756C4.31067 95.6053 4.094 96.654 4.094 97.902C4.094 99.15 4.31067 100.207 4.744 101.074C5.19467 101.941 5.80133 102.591 6.564 103.024C7.32667 103.457 8.18467 103.674 9.138 103.674C10.334 103.674 11.3307 103.388 12.128 102.816C12.9427 102.227 13.4713 101.412 13.714 100.372H15.664C15.3347 101.828 14.598 102.998 13.454 103.882C12.31 104.766 10.8713 105.208 9.138 105.208C7.80333 105.208 6.616 104.913 5.576 104.324C4.536 103.717 3.72133 102.868 3.132 101.776C2.54267 100.667 2.248 99.3753 2.248 97.902ZM25.2393 105.208C23.9046 105.208 22.7 104.913 21.6253 104.324C20.568 103.717 19.7273 102.868 19.1033 101.776C18.4966 100.667 18.1933 99.3753 18.1933 97.902C18.1933 96.4287 18.5053 95.146 19.1293 94.054C19.7533 92.9447 20.6026 92.0953 21.6773 91.506C22.752 90.8993 23.9566 90.596 25.2913 90.596C26.626 90.596 27.8306 90.8993 28.9053 91.506C29.9973 92.0953 30.8466 92.9447 31.4533 94.054C32.0773 95.146 32.3893 96.4287 32.3893 97.902C32.3893 99.358 32.0773 100.641 31.4533 101.75C30.8293 102.859 29.9713 103.717 28.8793 104.324C27.7873 104.913 26.574 105.208 25.2393 105.208ZM25.2393 103.622C26.1753 103.622 27.042 103.414 27.8393 102.998C28.6366 102.565 29.278 101.923 29.7633 101.074C30.266 100.207 30.5173 99.15 30.5173 97.902C30.5173 96.654 30.2746 95.6053 29.7893 94.756C29.304 93.8893 28.6626 93.248 27.8653 92.832C27.068 92.3987 26.2013 92.182 25.2653 92.182C24.3293 92.182 23.4626 92.3987 22.6653 92.832C21.868 93.248 21.2266 93.8893 20.7413 94.756C20.2733 95.6053 20.0393 96.654 20.0393 97.902C20.0393 99.15 20.2733 100.207 20.7413 101.074C21.2266 101.923 21.8593 102.565 22.6393 102.998C23.4366 103.414 24.3033 103.622 25.2393 103.622ZM52.607 90.544C54.271 90.544 55.623 91.0727 56.663 92.13C57.7203 93.17 58.249 94.6867 58.249 96.68V105H56.455V96.888C56.455 95.3453 56.0823 94.1667 55.337 93.352C54.5916 92.5373 53.5776 92.13 52.295 92.13C50.9603 92.13 49.8943 92.572 49.097 93.456C48.2996 94.34 47.901 95.6227 47.901 97.304V105H46.107V96.888C46.107 95.3453 45.7343 94.1667 44.989 93.352C44.2436 92.5373 43.221 92.13 41.921 92.13C40.5863 92.13 39.5203 92.572 38.723 93.456C37.9256 94.34 37.527 95.6227 37.527 97.304V105H35.707V90.804H37.527V93.248C37.9776 92.364 38.619 91.6967 39.451 91.246C40.283 90.778 41.2103 90.544 42.233 90.544C43.4636 90.544 44.5383 90.8387 45.457 91.428C46.393 92.0173 47.069 92.884 47.485 94.028C47.8663 92.9013 48.5163 92.0433 49.435 91.454C50.371 90.8473 51.4283 90.544 52.607 90.544ZM64.0849 93.924C64.5356 92.9707 65.2463 92.182 66.2169 91.558C67.2049 90.9167 68.3749 90.596 69.7269 90.596C71.0096 90.596 72.1623 90.8993 73.1849 91.506C74.2249 92.0953 75.0309 92.9447 75.6029 94.054C76.1923 95.146 76.4869 96.42 76.4869 97.876C76.4869 99.332 76.1923 100.615 75.6029 101.724C75.0309 102.833 74.2249 103.691 73.1849 104.298C72.1623 104.905 71.0096 105.208 69.7269 105.208C68.3923 105.208 67.2309 104.896 66.2429 104.272C65.2549 103.631 64.5356 102.833 64.0849 101.88V111.708H62.2909V90.804H64.0849V93.924ZM74.6409 97.876C74.6409 96.6973 74.4069 95.6833 73.9389 94.834C73.4883 93.9673 72.8643 93.3087 72.0669 92.858C71.2696 92.4073 70.3683 92.182 69.3629 92.182C68.3923 92.182 67.4996 92.416 66.6849 92.884C65.8876 93.352 65.2549 94.0193 64.7869 94.886C64.3189 95.7527 64.0849 96.758 64.0849 97.902C64.0849 99.046 64.3189 100.051 64.7869 100.918C65.2549 101.785 65.8876 102.452 66.6849 102.92C67.4996 103.388 68.3923 103.622 69.3629 103.622C70.3683 103.622 71.2696 103.397 72.0669 102.946C72.8643 102.478 73.4883 101.811 73.9389 100.944C74.4069 100.06 74.6409 99.0373 74.6409 97.876ZM79.0039 97.876C79.0039 96.42 79.2899 95.146 79.8619 94.054C80.4512 92.9447 81.2572 92.0953 82.2799 91.506C83.3199 90.8993 84.4899 90.596 85.7899 90.596C87.1419 90.596 88.3032 90.908 89.2739 91.532C90.2619 92.156 90.9725 92.9533 91.4059 93.924V90.804H93.2259V105H91.4059V101.854C90.9552 102.825 90.2359 103.631 89.2479 104.272C88.2772 104.896 87.1159 105.208 85.7639 105.208C84.4812 105.208 83.3199 104.905 82.2799 104.298C81.2572 103.691 80.4512 102.833 79.8619 101.724C79.2899 100.615 79.0039 99.332 79.0039 97.876ZM91.4059 97.902C91.4059 96.758 91.1719 95.7527 90.7039 94.886C90.2359 94.0193 89.5945 93.352 88.7799 92.884C87.9825 92.416 87.0985 92.182 86.1279 92.182C85.1225 92.182 84.2212 92.4073 83.4239 92.858C82.6265 93.3087 81.9939 93.9673 81.5259 94.834C81.0752 95.6833 80.8499 96.6973 80.8499 97.876C80.8499 99.0373 81.0752 100.06 81.5259 100.944C81.9939 101.811 82.6265 102.478 83.4239 102.946C84.2212 103.397 85.1225 103.622 86.1279 103.622C87.0985 103.622 87.9825 103.388 88.7799 102.92C89.5945 102.452 90.2359 101.785 90.7039 100.918C91.1719 100.051 91.4059 99.046 91.4059 97.902ZM104.037 90.544C105.735 90.544 107.122 91.0727 108.197 92.13C109.271 93.17 109.809 94.6867 109.809 96.68V105H108.015V96.888C108.015 95.3453 107.625 94.1667 106.845 93.352C106.082 92.5373 105.033 92.13 103.699 92.13C102.329 92.13 101.237 92.5633 100.423 93.43C99.6081 94.2967 99.2008 95.5707 99.2008 97.252V105H97.3808V90.804H99.2008V93.222C99.6514 92.3553 100.301 91.6967 101.151 91.246C102 90.778 102.962 90.544 104.037 90.544ZM125.534 90.804L117.11 111.682H115.212L117.968 104.922L112.144 90.804H114.146L118.982 102.92L123.662 90.804H125.534Z" fill="#0D0F1D"/>
<defs>
<filter id="filter0_d_195_3535" x="0" y="0" width="128" height="84.582" filterUnits="userSpaceOnUse" color-interpolation-filters="sRGB">
<feFlood flood-opacity="0" result="BackgroundImageFix"/>
<feColorMatrix in="SourceAlpha" type="matrix" values="0 0 0 0 0 0 0 0 0 0 0 0 0 0 0 0 0 0 127 0" result="hardAlpha"/>
<feOffset dy="4"/>
<feGaussianBlur stdDeviation="2"/>
<feComposite in2="hardAlpha" operator="out"/>
<feColorMatrix type="matrix" values="0 0 0 0 0 0 0 0 0 0 0 0 0 0 0 0 0 0 0.25 0"/>
<feBlend mode="normal" in2="BackgroundImageFix" result="effect1_dropShadow_195_3535"/>
<feBlend mode="normal" in="SourceGraphic" in2="effect1_dropShadow_195_3535" result="shape"/>
</filter>
</defs>
</svg>
