<svg width="61" height="52" viewBox="0 0 61 52" fill="none" xmlns="http://www.w3.org/2000/svg">
<g filter="url(#filter0_d_195_3637)">
<path d="M6.16819 1.83093V17.0519H19.6591C19.6591 17.0519 26.8864 16.8637 26.8864 18.0682C26.8864 19.2727 19.6591 18.9709 19.6591 18.9709H6.16819V31.9928H18.4546V33.8237H4V0H18.4546V1.83093H6.16819Z" fill="#1E52CF"/>
<path fill-rule="evenodd" clip-rule="evenodd" d="M40.6002 13.6302C41.0939 12.4413 41.3408 11.0779 41.3408 9.54001C41.3408 7.38382 40.8427 5.55972 39.8464 4.06771C39.9936 3.93195 40.1495 3.80077 40.3141 3.6742C41.8663 2.44947 43.7742 1.8371 46.0378 1.8371C47.7193 1.8371 49.1583 2.13543 50.3547 2.7321C51.5835 3.29736 52.5213 4.01964 53.168 4.89893C53.8471 5.77823 54.2837 6.64182 54.4777 7.48972H56.8059C56.4502 5.38569 55.3508 3.61139 53.5076 2.16684C51.6644 0.722278 49.2391 0 46.2318 0C44.1622 0 42.3352 0.376842 40.7507 1.13052C39.9169 1.52714 39.1816 2.00201 38.5447 2.55516C36.7134 0.85172 33.9515 0 30.259 0H20.8635V33.8237H23.0317V18.9837H30.259C33.9208 18.9837 36.6832 18.1646 38.5463 16.5264C38.9153 16.1956 39.2477 15.8389 39.5436 15.4564C39.8677 15.6481 40.2054 15.8189 40.5567 15.9686C41.9148 16.5339 43.6933 17.0992 45.8923 17.6644C47.8971 18.1983 49.4816 18.7007 50.6458 19.1718C51.8422 19.6428 52.8285 20.3494 53.6046 21.2915C54.413 22.2336 54.8172 23.5055 54.8172 25.107C54.8172 26.3632 54.4777 27.5094 53.7986 28.5457C53.1195 29.582 52.1494 30.3985 50.8883 30.9952C49.6595 31.5918 48.2043 31.8902 46.5228 31.8902C43.6448 31.8902 41.4944 31.215 40.0716 29.8646C38.6811 28.5143 37.8565 26.9755 37.5979 25.2483H35.3181C35.4475 26.8185 35.9648 28.2474 36.8703 29.5349C37.808 30.8224 39.1015 31.8431 40.7507 32.5967C42.3999 33.3504 44.3239 33.7273 46.5228 33.7273C48.7541 33.7273 50.6458 33.319 52.1979 32.5025C53.7824 31.6546 54.9789 30.5712 55.7873 29.2523C56.5958 27.9333 57 26.5359 57 25.0599C57 23.0501 56.5311 21.4642 55.5933 20.3023C54.6879 19.109 53.5723 18.2454 52.2464 17.7115C50.953 17.1463 49.1906 16.5653 46.9594 15.9686C44.9545 15.4662 43.3538 14.9794 42.1573 14.5084C41.5971 14.2666 41.078 13.9738 40.6002 13.6302ZM38.8998 11.94C39.0817 11.2167 39.1726 10.4167 39.1726 9.54001C39.1726 8.14453 38.9477 6.93821 38.4978 5.92106C38.8071 5.22952 39.2567 4.61174 39.8464 4.06771C39.4921 3.53707 39.0748 3.04845 38.5945 2.60182C38.578 2.5862 38.5614 2.57064 38.5447 2.55516C38.0327 2.99989 37.5844 3.4952 37.1998 4.04111C37.1516 3.99424 37.1026 3.94812 37.0526 3.90273C35.6393 2.58576 33.3748 1.92727 30.259 1.92727H23.0317V17.0564H30.259C33.9392 17.0564 36.4798 16.0954 37.8808 14.1735C38.3882 14.6732 38.9425 15.1009 39.5436 15.4564C39.9726 14.902 40.3248 14.2932 40.6002 13.6302C40.0851 13.2598 39.6179 12.8302 39.1985 12.3415C39.0919 12.2132 38.9923 12.0793 38.8998 11.94ZM38.8998 11.94C38.2905 11.023 37.9859 9.86929 37.9859 8.47892C37.9859 7.53655 38.1565 6.68393 38.4978 5.92106C38.1784 5.19911 37.7458 4.57246 37.1998 4.04111C37.1537 4.1065 37.1085 4.17262 37.0643 4.23946C36.2235 5.527 35.8032 6.95586 35.8032 8.52603C35.8032 10.5672 36.2559 12.1845 37.1613 13.3779C37.3896 13.6608 37.6295 13.926 37.8808 14.1735C38.3462 13.5351 38.6859 12.7906 38.8998 11.94Z" fill="#C1292E"/>
<path fill-rule="evenodd" clip-rule="evenodd" d="M38.8997 11.94C38.2904 11.023 37.9858 9.8693 37.9858 8.47892C37.9858 8.36112 37.9884 8.24473 37.9938 8.12973C38.0311 7.32478 38.1991 6.58855 38.4977 5.92103C38.4977 5.92103 38.4977 5.92104 38.4977 5.92104C38.7005 5.46767 38.9635 5.046 39.2869 4.65604C38.9635 5.046 38.7005 5.46767 38.4977 5.92103C38.1783 5.19909 37.7457 4.57245 37.1997 4.04111C37.1766 4.07381 37.1538 4.10668 37.1312 4.13974C37.1087 4.1728 37.0863 4.20604 37.0642 4.23946C36.3183 5.38175 35.9033 6.63526 35.8191 8C35.8084 8.17355 35.803 8.34889 35.803 8.52603C35.803 10.5672 36.2558 12.1845 37.1612 13.3779C37.3895 13.6608 37.6294 13.926 37.8807 14.1735C38.3461 13.5351 38.6858 12.7906 38.8997 11.94ZM39.5435 15.4565C39.9725 14.902 40.3247 14.2932 40.6001 13.6302C41.0779 13.9738 41.597 14.2666 42.1572 14.5084C42.3068 14.5673 42.4627 14.6264 42.6249 14.6858C43.7602 15.1014 45.205 15.529 46.9593 15.9686C47.0987 16.0059 47.2363 16.0432 47.3721 16.0803C49.409 16.6379 51.0337 17.1816 52.2463 17.7115C52.3292 17.7449 52.4112 17.7795 52.4925 17.8155C53.7108 18.3546 54.7444 19.1836 55.5932 20.3023C55.7104 20.4475 55.8203 20.5994 55.9229 20.7579C56.6409 21.8673 56.9999 23.3013 56.9999 25.0599C56.9999 26.5359 56.5956 27.9333 55.7872 29.2523C54.9788 30.5712 53.7823 31.6546 52.1978 32.5025C50.6457 33.319 48.754 33.7273 46.5227 33.7273C44.3238 33.7273 42.3998 33.3504 40.7506 32.5967C39.1014 31.8431 37.8079 30.8224 36.8702 29.5349C36.2597 28.6669 35.8257 27.7346 35.568 26.7381C35.4435 26.2565 35.3601 25.7599 35.318 25.2483H37.5977C37.6139 25.3563 37.6323 25.4635 37.6529 25.57C37.9617 27.1671 38.7679 28.5987 40.0715 29.8646C40.2494 30.0334 40.4386 30.1917 40.6392 30.3394C42.0433 31.3732 44.0045 31.8902 46.5227 31.8902C46.6278 31.8902 46.732 31.889 46.8353 31.8867C48.3852 31.8517 49.7362 31.5545 50.8882 30.9952C50.967 30.9579 51.0447 30.9197 51.1212 30.8807C52.2695 30.2956 53.1619 29.5172 53.7985 28.5457C53.8834 28.4162 53.963 28.2849 54.0372 28.1519C54.5572 27.2211 54.8171 26.2061 54.8171 25.107C54.8171 23.7056 54.5076 22.5567 53.8887 21.6603C53.8003 21.5322 53.7055 21.4093 53.6045 21.2915C52.8284 20.3494 51.8421 19.6428 50.6457 19.1718C49.4815 18.7007 47.897 18.1983 45.8921 17.6644C43.6932 17.0992 41.9147 16.5339 40.5566 15.9686C40.2053 15.8189 39.8676 15.6481 39.5435 15.4565ZM38.5447 2.55515C38.5613 2.57064 38.5779 2.58619 38.5944 2.60182C39.0747 3.04844 39.492 3.53707 39.8463 4.06769C39.9199 3.99981 39.9957 3.93308 40.0736 3.8675C40.1516 3.80192 40.2317 3.73748 40.314 3.6742C40.5975 3.45054 40.8928 3.2473 41.2 3.06448C42.5749 2.24623 44.1875 1.8371 46.0377 1.8371C47.7192 1.8371 49.1582 2.13543 50.3546 2.7321C51.5834 3.29736 52.5212 4.01964 53.1679 4.89893C53.847 5.77823 54.2836 6.64182 54.4776 7.48972H56.8058C56.4946 5.64869 55.6139 4.06012 54.1638 2.724C53.9567 2.53313 53.7379 2.3474 53.5075 2.16684C51.7795 0.812563 49.5399 0.0931062 46.7887 0.0084642C46.6053 0.0028214 46.4196 0 46.2317 0C44.4208 0 42.7956 0.28852 41.3561 0.865558C41.1762 0.937687 40.9992 1.01433 40.825 1.09547C40.8002 1.10706 40.7753 1.11875 40.7506 1.13052M40.7506 1.13052C40.5421 1.22968 40.3398 1.33372 40.1437 1.44266C39.5553 1.76946 39.0223 2.1403 38.5447 2.55515" fill="#1E52CF"/>
</g>
<path d="M1.576 43.724C1.576 43.044 1.712 42.452 1.984 41.948C2.256 41.436 2.632 41.044 3.112 40.772C3.592 40.492 4.14 40.352 4.756 40.352C5.564 40.352 6.228 40.552 6.748 40.952C7.276 41.352 7.616 41.896 7.768 42.584H6.868C6.756 42.112 6.512 41.744 6.136 41.48C5.768 41.208 5.308 41.072 4.756 41.072C4.316 41.072 3.92 41.172 3.568 41.372C3.216 41.572 2.936 41.872 2.728 42.272C2.528 42.664 2.428 43.148 2.428 43.724C2.428 44.3 2.528 44.788 2.728 45.188C2.936 45.588 3.216 45.888 3.568 46.088C3.92 46.288 4.316 46.388 4.756 46.388C5.308 46.388 5.768 46.256 6.136 45.992C6.512 45.72 6.756 45.344 6.868 44.864H7.768C7.616 45.536 7.276 46.076 6.748 46.484C6.22 46.892 5.556 47.096 4.756 47.096C4.14 47.096 3.592 46.96 3.112 46.688C2.632 46.408 2.256 46.016 1.984 45.512C1.712 45 1.576 44.404 1.576 43.724ZM12.1874 47.096C11.5714 47.096 11.0154 46.96 10.5194 46.688C10.0314 46.408 9.64338 46.016 9.35538 45.512C9.07538 45 8.93538 44.404 8.93538 43.724C8.93538 43.044 9.07938 42.452 9.36738 41.948C9.65538 41.436 10.0474 41.044 10.5434 40.772C11.0394 40.492 11.5954 40.352 12.2114 40.352C12.8274 40.352 13.3834 40.492 13.8794 40.772C14.3834 41.044 14.7754 41.436 15.0554 41.948C15.3434 42.452 15.4874 43.044 15.4874 43.724C15.4874 44.396 15.3434 44.988 15.0554 45.5C14.7674 46.012 14.3714 46.408 13.8674 46.688C13.3634 46.96 12.8034 47.096 12.1874 47.096ZM12.1874 46.364C12.6194 46.364 13.0194 46.268 13.3874 46.076C13.7554 45.876 14.0514 45.58 14.2754 45.188C14.5074 44.788 14.6234 44.3 14.6234 43.724C14.6234 43.148 14.5114 42.664 14.2874 42.272C14.0634 41.872 13.7674 41.576 13.3994 41.384C13.0314 41.184 12.6314 41.084 12.1994 41.084C11.7674 41.084 11.3674 41.184 10.9994 41.384C10.6314 41.576 10.3354 41.872 10.1114 42.272C9.89538 42.664 9.78738 43.148 9.78738 43.724C9.78738 44.3 9.89538 44.788 10.1114 45.188C10.3354 45.58 10.6274 45.876 10.9874 46.076C11.3554 46.268 11.7554 46.364 12.1874 46.364ZM24.8186 40.328C25.5866 40.328 26.2106 40.572 26.6906 41.06C27.1786 41.54 27.4226 42.24 27.4226 43.16V47H26.5946V43.256C26.5946 42.544 26.4226 42 26.0786 41.624C25.7346 41.248 25.2666 41.06 24.6746 41.06C24.0586 41.06 23.5666 41.264 23.1986 41.672C22.8306 42.08 22.6466 42.672 22.6466 43.448V47H21.8186V43.256C21.8186 42.544 21.6466 42 21.3026 41.624C20.9586 41.248 20.4866 41.06 19.8866 41.06C19.2706 41.06 18.7786 41.264 18.4106 41.672C18.0426 42.08 17.8586 42.672 17.8586 43.448V47H17.0186V40.448H17.8586V41.576C18.0666 41.168 18.3626 40.86 18.7466 40.652C19.1306 40.436 19.5586 40.328 20.0306 40.328C20.5986 40.328 21.0946 40.464 21.5186 40.736C21.9506 41.008 22.2626 41.408 22.4546 41.936C22.6306 41.416 22.9306 41.02 23.3546 40.748C23.7866 40.468 24.2746 40.328 24.8186 40.328ZM30.1161 41.888C30.3241 41.448 30.6521 41.084 31.1001 40.796C31.5561 40.5 32.0961 40.352 32.7201 40.352C33.3121 40.352 33.8441 40.492 34.3161 40.772C34.7961 41.044 35.1681 41.436 35.4321 41.948C35.7041 42.452 35.8401 43.04 35.8401 43.712C35.8401 44.384 35.7041 44.976 35.4321 45.488C35.1681 46 34.7961 46.396 34.3161 46.676C33.8441 46.956 33.3121 47.096 32.7201 47.096C32.1041 47.096 31.5681 46.952 31.1121 46.664C30.6561 46.368 30.3241 46 30.1161 45.56V50.096H29.2881V40.448H30.1161V41.888ZM34.9881 43.712C34.9881 43.168 34.8801 42.7 34.6641 42.308C34.4561 41.908 34.1681 41.604 33.8001 41.396C33.4321 41.188 33.0161 41.084 32.5521 41.084C32.1041 41.084 31.6921 41.192 31.3161 41.408C30.9481 41.624 30.6561 41.932 30.4401 42.332C30.2241 42.732 30.1161 43.196 30.1161 43.724C30.1161 44.252 30.2241 44.716 30.4401 45.116C30.6561 45.516 30.9481 45.824 31.3161 46.04C31.6921 46.256 32.1041 46.364 32.5521 46.364C33.0161 46.364 33.4321 46.26 33.8001 46.052C34.1681 45.836 34.4561 45.528 34.6641 45.128C34.8801 44.72 34.9881 44.248 34.9881 43.712ZM37.0018 43.712C37.0018 43.04 37.1338 42.452 37.3978 41.948C37.6698 41.436 38.0418 41.044 38.5138 40.772C38.9938 40.492 39.5338 40.352 40.1338 40.352C40.7578 40.352 41.2938 40.496 41.7418 40.784C42.1978 41.072 42.5258 41.44 42.7258 41.888V40.448H43.5658V47H42.7258V45.548C42.5178 45.996 42.1858 46.368 41.7298 46.664C41.2818 46.952 40.7458 47.096 40.1218 47.096C39.5298 47.096 38.9938 46.956 38.5138 46.676C38.0418 46.396 37.6698 46 37.3978 45.488C37.1338 44.976 37.0018 44.384 37.0018 43.712ZM42.7258 43.724C42.7258 43.196 42.6178 42.732 42.4018 42.332C42.1858 41.932 41.8898 41.624 41.5138 41.408C41.1458 41.192 40.7378 41.084 40.2898 41.084C39.8258 41.084 39.4098 41.188 39.0418 41.396C38.6738 41.604 38.3818 41.908 38.1658 42.308C37.9578 42.7 37.8538 43.168 37.8538 43.712C37.8538 44.248 37.9578 44.72 38.1658 45.128C38.3818 45.528 38.6738 45.836 39.0418 46.052C39.4098 46.26 39.8258 46.364 40.2898 46.364C40.7378 46.364 41.1458 46.256 41.5138 46.04C41.8898 45.824 42.1858 45.516 42.4018 45.116C42.6178 44.716 42.7258 44.252 42.7258 43.724ZM48.5554 40.328C49.3394 40.328 49.9794 40.572 50.4754 41.06C50.9714 41.54 51.2194 42.24 51.2194 43.16V47H50.3914V43.256C50.3914 42.544 50.2114 42 49.8514 41.624C49.4994 41.248 49.0154 41.06 48.3994 41.06C47.7674 41.06 47.2634 41.26 46.8874 41.66C46.5114 42.06 46.3234 42.648 46.3234 43.424V47H45.4834V40.448H46.3234V41.564C46.5314 41.164 46.8314 40.86 47.2234 40.652C47.6154 40.436 48.0594 40.328 48.5554 40.328ZM58.4772 40.448L54.5892 50.084H53.7132L54.9852 46.964L52.2972 40.448H53.2212L55.4532 46.04L57.6132 40.448H58.4772Z" fill="#0D0F1D"/>
<defs>
<filter id="filter0_d_195_3637" x="0" y="0" width="60.9999" height="41.8237" filterUnits="userSpaceOnUse" color-interpolation-filters="sRGB">
<feFlood flood-opacity="0" result="BackgroundImageFix"/>
<feColorMatrix in="SourceAlpha" type="matrix" values="0 0 0 0 0 0 0 0 0 0 0 0 0 0 0 0 0 0 127 0" result="hardAlpha"/>
<feOffset dy="4"/>
<feGaussianBlur stdDeviation="2"/>
<feComposite in2="hardAlpha" operator="out"/>
<feColorMatrix type="matrix" values="0 0 0 0 0 0 0 0 0 0 0 0 0 0 0 0 0 0 0.25 0"/>
<feBlend mode="normal" in2="BackgroundImageFix" result="effect1_dropShadow_195_3637"/>
<feBlend mode="normal" in="SourceGraphic" in2="effect1_dropShadow_195_3637" result="shape"/>
</filter>
</defs>
</svg>
