<svg width="137" height="24" viewBox="0 0 137 24" fill="none" xmlns="http://www.w3.org/2000/svg">
<path d="M1.09687 5.57975H0L1.09687 0.632152H7.36734V0H11.7402L10.5007 5.57975H6.04743V7.77584H11.3526L10.5007 11.8172H6.04743V14.0133H11.3526L10.2558 18.9609H1.09687V5.57975Z" fill="#1E52CF"/>
<path d="M14.5687 5.12879V4.46212H13.902H13.5956L14.4371 0.666667H19.0339C19.6478 0.666667 20.1747 0.68527 20.6171 0.721286L20.6173 0.721304C21.0496 0.756357 21.416 0.82179 21.7217 0.912093L21.7217 0.912105L21.7258 0.913263C22.0435 1.00495 22.3176 1.11863 22.5529 1.25088C22.7928 1.38719 23.0406 1.56359 23.2967 1.78436C23.9475 2.37041 24.4635 3.13218 24.837 4.09057L24.8375 4.09193C25.2131 5.04938 25.4055 6.11338 25.4055 7.29167C25.4055 8.67119 25.1538 9.89697 24.6649 10.9794L24.6647 10.9798C24.1774 12.0608 23.5344 12.82 22.7556 13.3055L22.7468 13.3109L22.7382 13.3167C21.9854 13.8191 20.7831 14.1174 19.0339 14.1174H18.3672V14.7841V18.3333H14.5687V5.12879ZM19.0712 4.26241L18.3672 4.22288V4.92803V9.85606V10.5227H19.0339H19.2347C19.9974 10.5227 20.6249 10.173 21.0791 9.55443C21.5255 8.9501 21.7245 8.20778 21.7245 7.37879C21.7245 6.51561 21.539 5.74614 21.0659 5.17317C20.5795 4.58424 19.8772 4.30766 19.0712 4.26241Z" fill="#C1292E" stroke="#C1292E" stroke-width="1.33333"/>
<path d="M27.77 12.9719C28.4501 13.4469 29.1649 13.8178 29.9162 14.0827C30.6667 14.3486 31.3623 14.481 32.0039 14.481C32.3714 14.481 32.674 14.3897 32.9107 14.207C33.1493 14.0243 33.269 13.7776 33.269 13.4652C33.269 13.2999 33.2407 13.1491 33.1849 13.0121C33.131 12.8733 33.0213 12.7307 32.8559 12.5846C32.6922 12.4384 32.4683 12.284 32.1831 12.1205C31.8997 11.9552 31.5295 11.7624 31.0716 11.5432C30.2087 11.1394 29.5433 10.7904 29.0753 10.4981C28.6091 10.204 28.2024 9.89154 27.8541 9.56268C27.3761 9.14155 27.0132 8.61079 26.7645 7.96951C26.5177 7.32913 26.3953 6.64217 26.3953 5.90862C26.3953 5.12208 26.5232 4.39858 26.7792 3.7381C27.0369 3.07855 27.3989 2.50577 27.8651 2.0207C28.3331 1.53653 28.8788 1.15651 29.5031 0.880629C30.1265 0.605661 30.8138 0.46772 31.5652 0.46772C31.95 0.46772 32.312 0.491471 32.6511 0.537147C32.9893 0.583736 33.4345 0.67052 33.9856 0.796585L34.1794 0L38.1355 0.961018L36.8997 5.98901C36.385 5.57062 35.8156 5.24632 35.1922 5.01703C34.5706 4.78865 33.9655 4.67354 33.3787 4.67354C32.9198 4.67354 32.5487 4.76033 32.2635 4.93298C31.9802 5.10655 31.8394 5.34041 31.8394 5.63456C31.8394 5.78072 31.8705 5.91866 31.9345 6.04747C32.0003 6.17445 32.1246 6.31056 32.3074 6.45673C32.4902 6.60289 32.737 6.76915 33.0496 6.95368C33.3613 7.13638 33.7562 7.3474 34.2343 7.58583C34.6922 7.82243 35.0807 8.02797 35.4006 8.20337C35.7223 8.37693 35.9975 8.54137 36.2269 8.69666C36.4554 8.85288 36.6519 9.00361 36.8156 9.14977C36.981 9.29593 37.1373 9.46219 37.2836 9.64672C38.0898 10.6169 38.4938 11.8163 38.4938 13.246C38.4938 14.143 38.342 14.967 38.0404 15.7198C37.7379 16.4707 37.321 17.1111 36.79 17.6418C36.258 18.1735 35.6209 18.59 34.8778 18.8915C34.1365 19.193 33.3165 19.3446 32.4171 19.3446C31.4272 19.3446 30.4647 19.2076 29.5287 18.9353C28.5945 18.6604 27.6247 18.2292 26.6183 17.6418L27.77 12.9719Z" fill="#1E52CF"/>
<mask id="path-4-inside-1_109_224" fill="white">
<path d="M54.0554 17.1604C52.368 18.6458 50.5984 19.3876 48.7456 19.3876C47.645 19.3876 46.5911 19.1172 45.5838 18.5764C44.5775 18.0346 43.7246 17.2792 43.0263 16.309C41.8545 14.6802 41.2676 12.6476 41.2676 10.2104C41.2676 8.41259 41.5565 6.8048 42.1342 5.38703C42.7109 3.96925 43.5208 2.83741 44.5637 1.99241C45.1542 1.51829 45.7968 1.1538 46.4906 0.89893C47.1889 0.639492 47.8845 0.509773 48.5783 0.509773C48.8379 0.509773 49.0856 0.528044 49.3233 0.563671C49.56 0.599298 49.8717 0.664157 50.2565 0.758249L50.5316 0.180908L54.2162 1.88553L52.1559 7.35291C51.677 6.71345 51.2135 6.25213 50.7666 5.97077C50.3187 5.68483 49.8022 5.54141 49.2154 5.54141C47.3992 5.54141 46.4906 7.03318 46.4906 10.0158C46.4906 11.4473 46.71 12.5563 47.1478 13.3437C47.5911 14.1303 48.2063 14.524 48.9942 14.524C50.1313 14.524 51.1843 13.7192 52.1559 12.1087L54.0554 17.1604ZM60.6512 5.45372C61.4931 5.45372 62.2673 5.62363 62.9738 5.96437C63.6813 6.3042 64.2901 6.78471 64.8001 7.4059C65.3148 8.028 65.7124 8.76612 65.9948 9.62026C66.2809 10.4698 66.4244 11.3998 66.4244 12.411C66.4244 13.4351 66.2809 14.3788 65.9948 15.242C65.7124 16.1007 65.3148 16.8361 64.8001 17.4491C64.2901 18.062 63.6722 18.538 62.9473 18.8778C62.2225 19.2176 61.43 19.3876 60.5708 19.3876C59.7426 19.3876 58.9849 19.2131 58.2957 18.865C57.6111 18.5161 57.0105 18.0301 56.4959 17.4089C55.9859 16.7868 55.5882 16.0514 55.3012 15.2018C55.0197 14.3477 54.8789 13.4168 54.8789 12.411C54.8789 11.3998 55.0197 10.4698 55.3012 9.62026C55.5882 8.76612 55.9859 8.03257 56.4959 7.4196C57.0105 6.80663 57.6193 6.32612 58.3222 5.97716C59.0288 5.6282 59.8057 5.45372 60.6512 5.45372ZM60.6512 10.0432C60.2308 10.0432 59.909 10.2597 59.6851 10.6936C59.4657 11.123 59.356 11.7396 59.356 12.5453C59.356 13.3684 59.4657 13.996 59.6851 14.4299C59.909 14.8593 60.2308 15.0739 60.6512 15.0739C61.0717 15.0739 61.3916 14.8593 61.611 14.4299C61.8304 13.996 61.94 13.3858 61.94 12.5983C61.94 10.8946 61.5104 10.0432 60.6512 10.0432ZM68.0734 10.2378H67.0533L68.0734 5.7296H72.5843V9.76733L73.4636 5.7296C73.7369 5.71133 73.9645 5.70219 74.1482 5.70219C74.332 5.70219 74.4974 5.70219 74.6455 5.70219C75.4864 5.70219 76.1354 5.78075 76.5915 5.93696C77.0531 6.09409 77.4581 6.38185 77.8063 6.80298C78.0796 7.13367 78.2771 7.50912 78.3977 7.92934C78.5184 8.34956 78.6052 8.96253 78.6591 9.76733L79.5385 5.7296C80.2542 5.7296 80.8319 5.73782 81.2706 5.75609C81.7094 5.77345 82.0649 5.81181 82.3373 5.87028C82.6152 5.92418 82.841 6.00182 83.0156 6.10505C83.1901 6.2028 83.3784 6.33526 83.5795 6.5006C84.2239 7.05054 84.5823 7.80236 84.6536 8.75516C84.6718 8.9205 84.6846 9.05844 84.6938 9.17081C84.7029 9.27769 84.712 9.42294 84.7203 9.60655C84.7294 9.79017 84.734 10.0386 84.734 10.3511C84.734 10.6598 84.734 11.0983 84.734 11.6665V14.7186H85.7011L84.734 19.1126H80.2231V13.3437C80.2231 12.7755 80.2231 12.3325 80.2231 12.0155C80.2231 11.693 80.2185 11.4491 80.2103 11.2838C80.2012 11.1184 80.1829 11.0042 80.1564 10.9421C80.1289 10.8745 80.0979 10.8051 80.0622 10.7338C79.9681 10.5685 79.8209 10.436 79.6189 10.3383C79.4178 10.2351 79.1984 10.193 78.9617 10.2104C78.8319 10.2104 78.7304 10.2195 78.6591 10.2378V19.1126H74.1482V13.1218C74.1482 12.6842 74.1437 12.3233 74.1345 12.042C74.1263 11.7561 74.1172 11.5249 74.108 11.3514C74.0989 11.1769 74.0815 11.0444 74.0541 10.9549C74.0276 10.8608 73.9965 10.7786 73.9609 10.7073C73.7945 10.3757 73.4371 10.2104 72.8868 10.2104C72.8503 10.2104 72.8082 10.2104 72.7589 10.2104C72.7141 10.2104 72.6556 10.2195 72.5843 10.2378V19.1126H68.0734V10.2378ZM87.0164 10.2378H85.9963L87.0164 5.7296H91.5273V9.76733L92.3801 5.7296C93.3335 5.7296 94.0848 5.78532 94.6351 5.89677C95.1854 6.00456 95.6716 6.18727 96.0921 6.44671C96.9157 6.93909 97.5464 7.72197 97.9851 8.79535C98.4275 9.86873 98.6497 11.1449 98.6497 12.6257C98.6497 13.6187 98.529 14.5222 98.2868 15.3361C98.05 16.1501 97.7118 16.8407 97.2731 17.4089C96.8352 17.9771 96.3023 18.4174 95.6762 18.7307C95.0537 19.0386 94.3581 19.193 93.5885 19.193C92.8719 19.193 92.1854 19.066 91.5273 18.8111V23.5066H87.0164V10.2378ZM91.5273 12.2704C91.5273 12.7847 91.5273 13.1802 91.5273 13.457C91.5273 13.7302 91.5364 13.9403 91.5547 14.0883C91.5721 14.2308 91.5986 14.3322 91.6352 14.3897C91.6708 14.4436 91.7174 14.5066 91.7759 14.5779C91.9596 14.7971 92.2229 14.9068 92.5675 14.9068C93.5209 14.9068 93.998 14.2024 93.998 12.7929C93.998 12.2969 93.9614 11.8858 93.8901 11.5587C93.8188 11.228 93.6863 10.9668 93.4944 10.774C93.3015 10.5813 93.0446 10.4452 92.722 10.3648C92.4002 10.2798 92.0017 10.2378 91.5273 10.2378V12.2704ZM104.915 19.0587C104.073 19.0231 103.427 18.9363 102.974 18.7974C102.527 18.6586 102.102 18.4064 101.699 18.0392C101.019 17.4354 100.504 16.6488 100.155 15.6778C99.8105 14.7076 99.6378 13.5895 99.6378 12.3233C99.6378 11.3176 99.7566 10.4031 99.9942 9.58006C100.231 8.75242 100.569 8.04627 101.008 7.45979C101.45 6.87423 101.988 6.42661 102.619 6.11784C103.249 5.80542 103.95 5.64829 104.72 5.64829C105.145 5.64829 105.525 5.6958 105.861 5.78989C106.201 5.87941 106.554 6.02466 106.921 6.22564V5.7296H111.265V14.7186H112.231L111.265 19.1126H106.76V15.0739L105.847 19.1126L104.915 19.0587ZM106.76 12.1361C106.76 11.8045 106.754 11.5341 106.74 11.324C106.731 11.1139 106.714 10.9394 106.686 10.8005C106.66 10.6626 106.628 10.553 106.592 10.4726C106.556 10.3876 106.501 10.309 106.425 10.2378C106.224 10.0185 105.977 9.90893 105.686 9.90893C105.266 9.90893 104.926 10.1236 104.666 10.553C104.411 10.9823 104.283 11.5459 104.283 12.243C104.283 13.911 104.935 14.7451 106.236 14.7451C106.272 14.7451 106.344 14.7451 106.451 14.7451C106.564 14.7451 106.666 14.7369 106.76 14.7186V12.1361ZM113.521 10.2378H112.5L113.521 5.7296H118.031V9.76733L118.937 5.7296C119.488 5.7296 119.917 5.7296 120.226 5.7296C120.54 5.7296 120.784 5.73325 120.958 5.74239C121.133 5.75152 121.274 5.76705 121.381 5.78989C121.493 5.80724 121.623 5.83465 121.77 5.87028C122.155 5.9598 122.515 6.13428 122.851 6.39372C123.191 6.64859 123.462 6.96832 123.663 7.35291C123.775 7.53562 123.862 7.7101 123.925 7.87636C123.992 8.0417 124.039 8.24724 124.066 8.49298C124.093 8.73872 124.111 9.06301 124.12 9.46587C124.128 9.86873 124.133 10.4095 124.133 11.0892V14.7186H125.093L124.133 19.1126H119.622V13.1757C119.622 12.7015 119.622 12.3279 119.622 12.0557C119.622 11.778 119.617 11.5569 119.609 11.3916C119.6 11.2253 119.582 11.0983 119.555 11.0088C119.528 10.9147 119.497 10.8234 119.461 10.7338C119.277 10.3849 118.902 10.2104 118.333 10.2104C118.297 10.2104 118.255 10.2104 118.206 10.2104C118.161 10.2104 118.103 10.2195 118.031 10.2378V19.1126H113.521V10.2378ZM126.858 18.6704C127.68 19.0368 128.363 19.298 128.904 19.4552C129.446 19.6114 129.981 19.6899 130.509 19.6899C131.243 19.6899 131.755 19.4707 132.046 19.0322C132.341 18.5891 132.489 17.82 132.489 16.7247V14.7186L131.724 18.0931H129.743C129.265 18.0931 128.806 18.0082 128.368 17.8382C127.929 17.6638 127.553 17.4198 127.24 17.1065C126.927 16.7941 126.705 16.3821 126.575 15.8723C126.45 15.358 126.388 14.598 126.388 13.5913V10.2378H125.367L126.388 5.7296H130.871V10.9823C130.871 11.894 130.88 12.5298 130.899 12.887C130.916 13.2451 130.961 13.4981 131.032 13.6452C131.198 13.9942 131.574 14.1686 132.16 14.1686C132.196 14.1686 132.245 14.1686 132.308 14.1686C132.375 14.1686 132.435 14.1595 132.489 14.1422V5.7296H137V17.9049C137 18.5088 136.986 19.0258 136.96 19.4552C136.933 19.8845 136.877 20.2554 136.792 20.5687C136.711 20.8821 136.606 21.1525 136.476 21.3799C136.351 21.6083 136.187 21.8321 135.986 22.0514C135.49 22.5657 134.843 22.9548 134.047 23.2188C133.25 23.4865 132.337 23.6208 131.308 23.6208C130.52 23.6208 129.645 23.5386 128.683 23.3723C127.721 23.207 126.828 22.9877 126.005 22.7155L126.858 18.6704Z"/>
</mask>
<path d="M54.0554 17.1604C52.368 18.6458 50.5984 19.3876 48.7456 19.3876C47.645 19.3876 46.5911 19.1172 45.5838 18.5764C44.5775 18.0346 43.7246 17.2792 43.0263 16.309C41.8545 14.6802 41.2676 12.6476 41.2676 10.2104C41.2676 8.41259 41.5565 6.8048 42.1342 5.38703C42.7109 3.96925 43.5208 2.83741 44.5637 1.99241C45.1542 1.51829 45.7968 1.1538 46.4906 0.89893C47.1889 0.639492 47.8845 0.509773 48.5783 0.509773C48.8379 0.509773 49.0856 0.528044 49.3233 0.563671C49.56 0.599298 49.8717 0.664157 50.2565 0.758249L50.5316 0.180908L54.2162 1.88553L52.1559 7.35291C51.677 6.71345 51.2135 6.25213 50.7666 5.97077C50.3187 5.68483 49.8022 5.54141 49.2154 5.54141C47.3992 5.54141 46.4906 7.03318 46.4906 10.0158C46.4906 11.4473 46.71 12.5563 47.1478 13.3437C47.5911 14.1303 48.2063 14.524 48.9942 14.524C50.1313 14.524 51.1843 13.7192 52.1559 12.1087L54.0554 17.1604ZM60.6512 5.45372C61.4931 5.45372 62.2673 5.62363 62.9738 5.96437C63.6813 6.3042 64.2901 6.78471 64.8001 7.4059C65.3148 8.028 65.7124 8.76612 65.9948 9.62026C66.2809 10.4698 66.4244 11.3998 66.4244 12.411C66.4244 13.4351 66.2809 14.3788 65.9948 15.242C65.7124 16.1007 65.3148 16.8361 64.8001 17.4491C64.2901 18.062 63.6722 18.538 62.9473 18.8778C62.2225 19.2176 61.43 19.3876 60.5708 19.3876C59.7426 19.3876 58.9849 19.2131 58.2957 18.865C57.6111 18.5161 57.0105 18.0301 56.4959 17.4089C55.9859 16.7868 55.5882 16.0514 55.3012 15.2018C55.0197 14.3477 54.8789 13.4168 54.8789 12.411C54.8789 11.3998 55.0197 10.4698 55.3012 9.62026C55.5882 8.76612 55.9859 8.03257 56.4959 7.4196C57.0105 6.80663 57.6193 6.32612 58.3222 5.97716C59.0288 5.6282 59.8057 5.45372 60.6512 5.45372ZM60.6512 10.0432C60.2308 10.0432 59.909 10.2597 59.6851 10.6936C59.4657 11.123 59.356 11.7396 59.356 12.5453C59.356 13.3684 59.4657 13.996 59.6851 14.4299C59.909 14.8593 60.2308 15.0739 60.6512 15.0739C61.0717 15.0739 61.3916 14.8593 61.611 14.4299C61.8304 13.996 61.94 13.3858 61.94 12.5983C61.94 10.8946 61.5104 10.0432 60.6512 10.0432ZM68.0734 10.2378H67.0533L68.0734 5.7296H72.5843V9.76733L73.4636 5.7296C73.7369 5.71133 73.9645 5.70219 74.1482 5.70219C74.332 5.70219 74.4974 5.70219 74.6455 5.70219C75.4864 5.70219 76.1354 5.78075 76.5915 5.93696C77.0531 6.09409 77.4581 6.38185 77.8063 6.80298C78.0796 7.13367 78.2771 7.50912 78.3977 7.92934C78.5184 8.34956 78.6052 8.96253 78.6591 9.76733L79.5385 5.7296C80.2542 5.7296 80.8319 5.73782 81.2706 5.75609C81.7094 5.77345 82.0649 5.81181 82.3373 5.87028C82.6152 5.92418 82.841 6.00182 83.0156 6.10505C83.1901 6.2028 83.3784 6.33526 83.5795 6.5006C84.2239 7.05054 84.5823 7.80236 84.6536 8.75516C84.6718 8.9205 84.6846 9.05844 84.6938 9.17081C84.7029 9.27769 84.712 9.42294 84.7203 9.60655C84.7294 9.79017 84.734 10.0386 84.734 10.3511C84.734 10.6598 84.734 11.0983 84.734 11.6665V14.7186H85.7011L84.734 19.1126H80.2231V13.3437C80.2231 12.7755 80.2231 12.3325 80.2231 12.0155C80.2231 11.693 80.2185 11.4491 80.2103 11.2838C80.2012 11.1184 80.1829 11.0042 80.1564 10.9421C80.1289 10.8745 80.0979 10.8051 80.0622 10.7338C79.9681 10.5685 79.8209 10.436 79.6189 10.3383C79.4178 10.2351 79.1984 10.193 78.9617 10.2104C78.8319 10.2104 78.7304 10.2195 78.6591 10.2378V19.1126H74.1482V13.1218C74.1482 12.6842 74.1437 12.3233 74.1345 12.042C74.1263 11.7561 74.1172 11.5249 74.108 11.3514C74.0989 11.1769 74.0815 11.0444 74.0541 10.9549C74.0276 10.8608 73.9965 10.7786 73.9609 10.7073C73.7945 10.3757 73.4371 10.2104 72.8868 10.2104C72.8503 10.2104 72.8082 10.2104 72.7589 10.2104C72.7141 10.2104 72.6556 10.2195 72.5843 10.2378V19.1126H68.0734V10.2378ZM87.0164 10.2378H85.9963L87.0164 5.7296H91.5273V9.76733L92.3801 5.7296C93.3335 5.7296 94.0848 5.78532 94.6351 5.89677C95.1854 6.00456 95.6716 6.18727 96.0921 6.44671C96.9157 6.93909 97.5464 7.72197 97.9851 8.79535C98.4275 9.86873 98.6497 11.1449 98.6497 12.6257C98.6497 13.6187 98.529 14.5222 98.2868 15.3361C98.05 16.1501 97.7118 16.8407 97.2731 17.4089C96.8352 17.9771 96.3023 18.4174 95.6762 18.7307C95.0537 19.0386 94.3581 19.193 93.5885 19.193C92.8719 19.193 92.1854 19.066 91.5273 18.8111V23.5066H87.0164V10.2378ZM91.5273 12.2704C91.5273 12.7847 91.5273 13.1802 91.5273 13.457C91.5273 13.7302 91.5364 13.9403 91.5547 14.0883C91.5721 14.2308 91.5986 14.3322 91.6352 14.3897C91.6708 14.4436 91.7174 14.5066 91.7759 14.5779C91.9596 14.7971 92.2229 14.9068 92.5675 14.9068C93.5209 14.9068 93.998 14.2024 93.998 12.7929C93.998 12.2969 93.9614 11.8858 93.8901 11.5587C93.8188 11.228 93.6863 10.9668 93.4944 10.774C93.3015 10.5813 93.0446 10.4452 92.722 10.3648C92.4002 10.2798 92.0017 10.2378 91.5273 10.2378V12.2704ZM104.915 19.0587C104.073 19.0231 103.427 18.9363 102.974 18.7974C102.527 18.6586 102.102 18.4064 101.699 18.0392C101.019 17.4354 100.504 16.6488 100.155 15.6778C99.8105 14.7076 99.6378 13.5895 99.6378 12.3233C99.6378 11.3176 99.7566 10.4031 99.9942 9.58006C100.231 8.75242 100.569 8.04627 101.008 7.45979C101.45 6.87423 101.988 6.42661 102.619 6.11784C103.249 5.80542 103.95 5.64829 104.72 5.64829C105.145 5.64829 105.525 5.6958 105.861 5.78989C106.201 5.87941 106.554 6.02466 106.921 6.22564V5.7296H111.265V14.7186H112.231L111.265 19.1126H106.76V15.0739L105.847 19.1126L104.915 19.0587ZM106.76 12.1361C106.76 11.8045 106.754 11.5341 106.74 11.324C106.731 11.1139 106.714 10.9394 106.686 10.8005C106.66 10.6626 106.628 10.553 106.592 10.4726C106.556 10.3876 106.501 10.309 106.425 10.2378C106.224 10.0185 105.977 9.90893 105.686 9.90893C105.266 9.90893 104.926 10.1236 104.666 10.553C104.411 10.9823 104.283 11.5459 104.283 12.243C104.283 13.911 104.935 14.7451 106.236 14.7451C106.272 14.7451 106.344 14.7451 106.451 14.7451C106.564 14.7451 106.666 14.7369 106.76 14.7186V12.1361ZM113.521 10.2378H112.5L113.521 5.7296H118.031V9.76733L118.937 5.7296C119.488 5.7296 119.917 5.7296 120.226 5.7296C120.54 5.7296 120.784 5.73325 120.958 5.74239C121.133 5.75152 121.274 5.76705 121.381 5.78989C121.493 5.80724 121.623 5.83465 121.77 5.87028C122.155 5.9598 122.515 6.13428 122.851 6.39372C123.191 6.64859 123.462 6.96832 123.663 7.35291C123.775 7.53562 123.862 7.7101 123.925 7.87636C123.992 8.0417 124.039 8.24724 124.066 8.49298C124.093 8.73872 124.111 9.06301 124.12 9.46587C124.128 9.86873 124.133 10.4095 124.133 11.0892V14.7186H125.093L124.133 19.1126H119.622V13.1757C119.622 12.7015 119.622 12.3279 119.622 12.0557C119.622 11.778 119.617 11.5569 119.609 11.3916C119.6 11.2253 119.582 11.0983 119.555 11.0088C119.528 10.9147 119.497 10.8234 119.461 10.7338C119.277 10.3849 118.902 10.2104 118.333 10.2104C118.297 10.2104 118.255 10.2104 118.206 10.2104C118.161 10.2104 118.103 10.2195 118.031 10.2378V19.1126H113.521V10.2378ZM126.858 18.6704C127.68 19.0368 128.363 19.298 128.904 19.4552C129.446 19.6114 129.981 19.6899 130.509 19.6899C131.243 19.6899 131.755 19.4707 132.046 19.0322C132.341 18.5891 132.489 17.82 132.489 16.7247V14.7186L131.724 18.0931H129.743C129.265 18.0931 128.806 18.0082 128.368 17.8382C127.929 17.6638 127.553 17.4198 127.24 17.1065C126.927 16.7941 126.705 16.3821 126.575 15.8723C126.45 15.358 126.388 14.598 126.388 13.5913V10.2378H125.367L126.388 5.7296H130.871V10.9823C130.871 11.894 130.88 12.5298 130.899 12.887C130.916 13.2451 130.961 13.4981 131.032 13.6452C131.198 13.9942 131.574 14.1686 132.16 14.1686C132.196 14.1686 132.245 14.1686 132.308 14.1686C132.375 14.1686 132.435 14.1595 132.489 14.1422V5.7296H137V17.9049C137 18.5088 136.986 19.0258 136.96 19.4552C136.933 19.8845 136.877 20.2554 136.792 20.5687C136.711 20.8821 136.606 21.1525 136.476 21.3799C136.351 21.6083 136.187 21.8321 135.986 22.0514C135.49 22.5657 134.843 22.9548 134.047 23.2188C133.25 23.4865 132.337 23.6208 131.308 23.6208C130.52 23.6208 129.645 23.5386 128.683 23.3723C127.721 23.207 126.828 22.9877 126.005 22.7155L126.858 18.6704Z" stroke="#C1292E" stroke-width="192" mask="url(#path-4-inside-1_109_224)"/>
</svg>
