<svg width="158" height="158" viewBox="0 0 158 158" fill="none" xmlns="http://www.w3.org/2000/svg">
<g filter="url(#filter0_d_182_297)">
<circle cx="79" cy="75" r="75" fill="#EBEFFD"/>
<g filter="url(#filter1_d_182_297)">
<path d="M30.3364 44.6619V75.1037H57.3182C57.3182 75.1037 71.7728 74.7273 71.7728 77.1364C71.7728 79.5455 57.3182 78.9417 57.3182 78.9417H30.3364V104.986H54.9091V108.647H26V41H54.9091V44.6619H30.3364Z" fill="#1E52CF"/>
<path fill-rule="evenodd" clip-rule="evenodd" d="M99.2003 68.2604C100.188 65.8826 100.682 63.1559 100.682 60.08C100.682 55.7676 99.6854 52.1194 97.6929 49.1354C97.9872 48.8639 98.299 48.6015 98.6283 48.3484C101.733 45.8989 105.548 44.6742 110.076 44.6742C113.439 44.6742 116.317 45.2709 118.709 46.4642C121.167 47.5947 123.043 49.0393 124.336 50.7979C125.694 52.5565 126.567 54.2836 126.955 55.9794H131.612C130.9 51.7714 128.702 48.2228 125.015 45.3337C121.329 42.4446 116.478 41 110.464 41C106.324 41 102.67 41.7537 99.5014 43.261C97.8337 44.0543 96.3631 45.004 95.0895 46.1103C91.4268 42.7034 85.903 41 78.518 41H59.7271V108.647H64.0634V78.9673H78.518C85.8416 78.9673 91.3665 77.3291 95.0925 74.0528C95.8305 73.3911 96.4954 72.6778 97.0872 71.9129C97.7353 72.2963 98.4107 72.6377 99.1133 72.9373C101.83 74.0678 105.387 75.1983 109.784 76.3288C113.794 77.3966 116.963 78.4015 119.292 79.3436C121.684 80.2857 123.657 81.6988 125.209 83.583C126.826 85.4672 127.634 88.0109 127.634 91.214C127.634 93.7263 126.955 96.0188 125.597 98.0914C124.239 100.164 122.299 101.797 119.777 102.99C117.319 104.184 114.409 104.78 111.046 104.78C105.29 104.78 100.989 103.43 98.1432 100.729C95.3623 98.0286 93.7131 94.951 93.1957 91.4967H88.6362C88.8949 94.637 89.9297 97.4947 91.7405 100.07C93.6161 102.645 96.203 104.686 99.5014 106.193C102.8 107.701 106.648 108.455 111.046 108.455C115.508 108.455 119.292 107.638 122.396 106.005C125.565 104.309 127.958 102.142 129.575 99.5045C131.191 96.8667 132 94.0718 132 91.1198C132 87.1002 131.062 83.9285 129.187 81.6046C127.376 79.2179 125.145 77.4908 122.493 76.423C119.906 75.2925 116.381 74.1306 111.919 72.9373C107.909 71.9324 104.708 70.9589 102.315 70.0168C101.194 69.5331 100.156 68.9477 99.2003 68.2604ZM95.7996 64.8801C96.1634 63.4334 96.3453 61.8334 96.3453 60.08C96.3453 57.289 95.8954 54.8764 94.9955 52.8421C95.6142 51.459 96.5133 50.2235 97.6929 49.1354C96.9842 48.0741 96.1496 47.0969 95.1889 46.2036C95.1559 46.1724 95.1228 46.1413 95.0895 46.1103C94.0655 46.9998 93.1688 47.9904 92.3995 49.0822C92.3032 48.9885 92.2051 48.8962 92.1053 48.8055C89.2786 46.1715 84.7495 44.8545 78.518 44.8545H64.0634V75.1128H78.518C85.8784 75.1128 90.9596 73.1909 93.7616 69.3471C94.7764 70.3465 95.8849 71.2018 97.0872 71.9129C97.9452 70.804 98.6495 69.5864 99.2003 68.2604C98.1702 67.5196 97.2357 66.6605 96.397 65.6831C96.1838 65.4263 95.9847 65.1587 95.7996 64.8801ZM95.7996 64.8801C94.581 63.046 93.9718 60.7386 93.9718 57.9578C93.9718 56.0731 94.313 54.3678 94.9955 52.8421C94.3569 51.3982 93.4915 50.1449 92.3995 49.0822C92.3074 49.213 92.2171 49.3452 92.1286 49.4789C90.4471 52.054 89.6063 54.9117 89.6063 58.0521C89.6063 62.1345 90.5117 65.369 92.3226 67.7557C92.7793 68.3215 93.2589 68.852 93.7616 69.3471C94.6925 68.0702 95.3718 66.5812 95.7996 64.8801Z" fill="#C1292E"/>
<path fill-rule="evenodd" clip-rule="evenodd" d="M95.7994 64.8801C94.5808 63.046 93.9716 60.7386 93.9716 57.9578C93.9716 56.0731 94.3128 54.3678 94.9953 52.8421C94.3567 51.3982 93.4913 50.1449 92.3993 49.0822C92.3748 49.1171 92.3503 49.1521 92.326 49.1872C92.2591 49.2837 92.1932 49.3809 92.1284 49.4789C90.4468 52.054 89.6061 54.9117 89.6061 58.0521C89.6061 61.6242 90.2993 64.5472 91.6858 66.821C91.8838 67.1458 92.096 67.4574 92.3224 67.7557C92.7791 68.3215 93.2587 68.852 93.7614 69.3471C94.6923 68.0702 95.3716 66.5812 95.7994 64.8801ZM97.087 71.9129C97.945 70.804 98.6493 69.5865 99.2001 68.2604C100.156 68.9477 101.194 69.5331 102.314 70.0168C104.707 70.9589 107.909 71.9324 111.919 72.9373C116.381 74.1306 119.906 75.2925 122.493 76.423C125.144 77.4908 127.376 79.2179 129.186 81.6046C131.062 83.9285 132 87.1002 132 91.1198C132 94.0718 131.191 96.8667 129.574 99.5045C129.372 99.8343 129.158 100.157 128.932 100.472C127.347 102.677 125.169 104.521 122.396 106.005C122.008 106.209 121.609 106.401 121.2 106.579C118.335 107.829 114.95 108.455 111.045 108.455C110.771 108.455 110.498 108.452 110.227 108.446C106.169 108.357 102.593 107.607 99.5012 106.193C99.295 106.099 99.0917 106.003 98.8911 105.905C95.8822 104.429 93.4986 102.484 91.7403 100.07C91.712 100.03 91.6839 99.9893 91.656 99.9489C91.4606 99.6663 91.2745 99.3803 91.0976 99.0909C89.6829 96.7759 88.8623 94.2445 88.636 91.4967H93.1955C93.7129 94.951 95.3621 98.0286 98.143 100.729C100.989 103.43 105.289 104.78 111.045 104.78C114.408 104.78 117.319 104.184 119.776 102.99C122.299 101.797 124.239 100.164 125.597 98.0914C126.955 96.0188 127.634 93.7263 127.634 91.214C127.634 88.0109 126.826 85.4672 125.209 83.583C125.015 83.3475 124.814 83.1193 124.607 82.8985C123.157 81.3529 121.385 80.1679 119.291 79.3436C119 79.2258 118.696 79.1071 118.379 78.9873C116.158 78.1493 113.293 77.2631 109.784 76.3288C109.509 76.2582 109.238 76.1875 108.97 76.1169C104.945 75.057 101.66 73.9971 99.1131 72.9373C99.0692 72.9185 99.0254 72.8997 98.9817 72.8806C98.3262 72.5949 97.6946 72.2723 97.087 71.9129ZM97.6927 49.1354C96.984 48.0741 96.1494 47.0969 95.1887 46.2036C95.1557 46.1724 95.1226 46.1413 95.0893 46.1103C96.3629 45.004 97.8335 44.0543 99.5012 43.261C102.67 41.7537 106.324 41 110.463 41C116.478 41 121.329 42.4446 125.015 45.3337C128.701 48.2228 130.9 51.7714 131.612 55.9794H126.955C126.907 55.7675 126.851 55.555 126.787 55.342C126.341 53.8514 125.524 52.3366 124.336 50.7979C124.174 50.578 124.003 50.3631 123.824 50.1531C122.564 48.683 120.86 47.4534 118.709 46.4642C118.41 46.315 118.103 46.1752 117.789 46.0447C115.589 45.131 113.018 44.6742 110.075 44.6742C109.792 44.6742 109.512 44.679 109.235 44.6886C105.074 44.8321 101.538 46.052 98.6281 48.3484C98.6075 48.3642 98.587 48.3801 98.5665 48.396C98.2599 48.6344 97.9686 48.8808 97.6927 49.1354Z" fill="#1E52CF"/>
</g>
</g>
<defs>
<filter id="filter0_d_182_297" x="0" y="0" width="158" height="158" filterUnits="userSpaceOnUse" color-interpolation-filters="sRGB">
<feFlood flood-opacity="0" result="BackgroundImageFix"/>
<feColorMatrix in="SourceAlpha" type="matrix" values="0 0 0 0 0 0 0 0 0 0 0 0 0 0 0 0 0 0 127 0" result="hardAlpha"/>
<feOffset dy="4"/>
<feGaussianBlur stdDeviation="2"/>
<feComposite in2="hardAlpha" operator="out"/>
<feColorMatrix type="matrix" values="0 0 0 0 0 0 0 0 0 0 0 0 0 0 0 0 0 0 0.25 0"/>
<feBlend mode="normal" in2="BackgroundImageFix" result="effect1_dropShadow_182_297"/>
<feBlend mode="normal" in="SourceGraphic" in2="effect1_dropShadow_182_297" result="shape"/>
</filter>
<filter id="filter1_d_182_297" x="22" y="41" width="114" height="75.6475" filterUnits="userSpaceOnUse" color-interpolation-filters="sRGB">
<feFlood flood-opacity="0" result="BackgroundImageFix"/>
<feColorMatrix in="SourceAlpha" type="matrix" values="0 0 0 0 0 0 0 0 0 0 0 0 0 0 0 0 0 0 127 0" result="hardAlpha"/>
<feOffset dy="4"/>
<feGaussianBlur stdDeviation="2"/>
<feComposite in2="hardAlpha" operator="out"/>
<feColorMatrix type="matrix" values="0 0 0 0 0 0 0 0 0 0 0 0 0 0 0 0 0 0 0.25 0"/>
<feBlend mode="normal" in2="BackgroundImageFix" result="effect1_dropShadow_182_297"/>
<feBlend mode="normal" in="SourceGraphic" in2="effect1_dropShadow_182_297" result="shape"/>
</filter>
</defs>
</svg>
