<svg width="66" height="66" viewBox="0 0 66 66" fill="none" xmlns="http://www.w3.org/2000/svg">
<g clip-path="url(#clip0_165_750)">
<path fill-rule="evenodd" clip-rule="evenodd" d="M6.6 36.0151C6.6 37.8367 8.08173 39.5987 9.90332 39.5987H19.8033H21.4533C24.1857 39.5987 26.4 41.6745 26.4 44.4069V44.2651V55.8151C26.4 57.6367 27.8817 59.3979 29.7033 59.3979H56.1033C57.9249 59.3979 59.4 57.6367 59.4 55.8151V26.1151V9.61512C59.4 7.79353 57.9249 6.59872 56.1033 6.59872H42.9033H39.6033H9.90332C8.08173 6.59872 6.6 7.79353 6.6 9.61512V36.0151ZM4.95332 46.1987C2.21762 46.1987 0 43.6975 0 40.9651V39.3151V7.96513V4.66512C0 1.93272 2.21762 -0.00128174 4.95332 -0.00128174H6.60332H39.6033H42.9033H59.4033H61.0533C63.7857 -0.00128174 66 1.93272 66 4.66512V7.96513V26.1151V60.7643V60.9061C66 63.6418 63.7857 65.9979 61.0533 65.9979H59.4033H26.4033H24.7533C22.0176 65.9979 19.8 63.4967 19.8 60.7643V46.1987H4.95332Z" fill="#FDF9F9"/>
</g>
<defs>
<clipPath id="clip0_165_750">
<rect width="66" height="66" fill="white" transform="matrix(-1 0 0 1 66 0)"/>
</clipPath>
</defs>
</svg>
