<svg width="72" height="73" viewBox="0 0 72 73" fill="none" xmlns="http://www.w3.org/2000/svg">
<path d="M35.9995 68.4247C35.2795 68.4247 34.5596 68.3348 33.8696 68.1248C18.2996 63.8348 7.01953 49.2847 7.01953 33.5047V20.3346C7.01953 16.9746 9.44955 13.3448 12.5695 12.0548L29.2796 5.21471C33.6296 3.44471 38.3995 3.44471 42.7195 5.21471L59.4295 12.0548C62.5495 13.3448 64.9796 16.9746 64.9796 20.3346V33.5047C64.9796 49.2547 53.6695 63.8048 38.1295 68.1248C37.4395 68.3348 36.7195 68.4247 35.9995 68.4247ZM35.9995 8.42473C34.2895 8.42473 32.6095 8.75478 30.9895 9.41478L14.2796 16.2547C12.8396 16.8547 11.5195 18.8047 11.5195 20.3647V33.5347C11.5195 47.3047 21.4195 60.0248 35.0695 63.8048C35.6695 63.9848 36.3295 63.9848 36.9295 63.8048C50.5795 60.0248 60.4796 47.3047 60.4796 33.5347V20.3647C60.4796 18.8047 59.1595 16.8547 57.7195 16.2547L41.0096 9.41478C39.3896 8.75478 37.7095 8.42473 35.9995 8.42473Z" fill="#1E52CF"/>
<path d="M36 39.9246C31.44 39.9246 27.75 36.2346 27.75 31.6746C27.75 27.1146 31.44 23.4246 36 23.4246C40.56 23.4246 44.25 27.1146 44.25 31.6746C44.25 36.2346 40.56 39.9246 36 39.9246ZM36 27.9246C33.93 27.9246 32.25 29.6046 32.25 31.6746C32.25 33.7446 33.93 35.4246 36 35.4246C38.07 35.4246 39.75 33.7446 39.75 31.6746C39.75 29.6046 38.07 27.9246 36 27.9246Z" fill="#1E52CF"/>
<path d="M36 48.9246C34.77 48.9246 33.75 47.9046 33.75 46.6746V37.6746C33.75 36.4446 34.77 35.4246 36 35.4246C37.23 35.4246 38.25 36.4446 38.25 37.6746V46.6746C38.25 47.9046 37.23 48.9246 36 48.9246Z" fill="#1E52CF"/>
</svg>
